<svg width="58" height="58" viewBox="0 0 58 58" fill="none" xmlns="http://www.w3.org/2000/svg">
<path d="M43.5 29L44.5607 30.0607L45.6213 29L44.5607 27.9393L43.5 29ZM30.0607 44.5607L44.5607 30.0607L42.4393 27.9393L27.9393 42.4393L30.0607 44.5607ZM44.5607 27.9393L30.0607 13.4393L27.9393 15.5607L42.4393 30.0607L44.5607 27.9393Z" fill="#243A73"/>
<path d="M29 29L30.0607 30.0607L31.1213 29L30.0607 27.9393L29 29ZM15.5607 44.5607L30.0607 30.0607L27.9393 27.9393L13.4393 42.4393L15.5607 44.5607ZM30.0607 27.9393L15.5607 13.4393L13.4393 15.5607L27.9393 30.0607L30.0607 27.9393Z" fill="#243A73"/>
</svg>
