<svg width="499" height="310" viewBox="0 0 499 310" fill="none" xmlns="http://www.w3.org/2000/svg">
<mask id="mask0_19_565" style="mask-type:alpha" maskUnits="userSpaceOnUse" x="0" y="0" width="499" height="309">
<rect width="499" height="309" fill="#D9D9D9"/>
</mask>
<g mask="url(#mask0_19_565)">
</g>
<g clip-path="url(#clip0_19_565)">
<path d="M479 166.166C479 228.263 439.558 281.172 384.314 301.305C375.91 304.373 367.235 306.645 358.404 308.091C334.109 312.067 309.2 309.81 286.02 301.531C230.426 281.564 190.696 228.477 190.722 166.135C190.722 86.7302 255.257 22.3317 334.861 22.3317C364.946 22.288 394.284 31.6802 418.728 49.1807C455.221 75.2714 479 117.947 479 166.166Z" fill="#E5E5E5"/>
<path d="M384.314 301.305C375.91 304.373 367.235 306.645 358.404 308.091C334.109 312.067 309.2 309.81 286.02 301.531L292.677 274.878L293.078 273.279L306.662 273.331L374.906 273.575L375.779 276.151L384.314 301.305Z" fill="#2F2E41"/>
<path d="M145.205 3H20V144.374H145.205V3Z" fill="#E6E6E6"/>
<path d="M142.753 5.99084H22.2324V141.383H142.753V5.99084Z" fill="white"/>
<path d="M82.6025 136.569C86.3336 136.569 89.3583 133.551 89.3583 129.828C89.3583 126.105 86.3336 123.086 82.6025 123.086C78.8715 123.086 75.8468 126.105 75.8468 129.828C75.8468 133.551 78.8715 136.569 82.6025 136.569Z" fill="#E6E6E6"/>
<path d="M81.4612 53.9169H42.6586V57.878H81.4612V53.9169Z" fill="#E6E6E6"/>
<path d="M101.222 65.7866H42.6586V69.7477H101.222V65.7866Z" fill="#0D3FB2"/>
<path d="M95.4737 77.731H42.6586V81.6921H95.4737V77.731Z" fill="#E6E6E6"/>
<path d="M124.216 89.3597H42.6586V93.3208H124.216V89.3597Z" fill="#0D3FB2"/>
<path d="M109.974 100.435H43.5065V104.396H109.974V100.435Z" fill="#E6E6E6"/>
<path d="M198.037 233.044C198.513 233.532 198.95 234.056 199.344 234.613L260.541 233.119L267.68 220.1L288.777 228.284L278.382 252.556C277.542 254.517 276.087 256.153 274.237 257.218C272.386 258.284 270.239 258.722 268.117 258.466L198.974 250.131C197.343 252.192 195.122 253.708 192.607 254.478C190.091 255.248 187.4 255.236 184.892 254.443C182.384 253.649 180.177 252.113 178.565 250.038C176.953 247.962 176.013 245.446 175.869 242.825C175.725 240.203 176.384 237.6 177.759 235.361C179.134 233.122 181.159 231.354 183.565 230.292C185.971 229.23 188.645 228.924 191.23 229.415C193.814 229.906 196.188 231.171 198.035 233.041L198.037 233.044Z" fill="#DEC3C7"/>
<path d="M280.406 158.707L309.046 149.341L317.457 137.83L358.391 140.247L364.401 153.68L386.227 163.972L382.873 226.136L377.135 284.314C347.626 269.066 292.556 280.691 292.074 280.88L280.406 158.707Z" fill="#0D3FB2"/>
<path d="M286.528 242.85L257.398 231.22L257.522 230.702C257.647 230.179 270.045 178.479 271.691 170.17C273.406 161.515 279.672 159.121 279.938 159.024L280.132 158.953L291.661 162.454L296.724 202.153L286.528 242.85Z" fill="#0D3FB2"/>
<path d="M349.428 281.757C350.11 281.74 350.794 281.778 351.47 281.869L391.981 236.072L387.269 222L407.626 212.127L418.395 236.236C419.265 238.183 419.479 240.36 419.004 242.439C418.528 244.518 417.39 246.387 415.76 247.766L362.625 292.691C363.03 295.285 362.634 297.941 361.489 300.305C360.344 302.669 358.506 304.63 356.217 305.926C353.929 307.222 351.299 307.791 348.678 307.56C346.058 307.328 343.569 306.305 341.545 304.628C339.521 302.951 338.056 300.699 337.346 298.17C336.636 295.642 336.714 292.958 337.569 290.475C338.425 287.993 340.018 285.829 342.136 284.271C344.254 282.714 346.798 281.837 349.428 281.757Z" fill="#DEC3C7"/>
<path d="M388.747 240.53L371.849 200.864L378.44 173.235L385.541 164.282C386.061 164.06 386.622 163.948 387.188 163.953C387.753 163.958 388.312 164.081 388.828 164.312C391.448 165.364 393.676 168.588 395.457 173.894L411.294 218.909L388.747 240.53Z" fill="#0D3FB2"/>
<path d="M301.072 123.131V93.2271C301.055 87.9647 302.076 82.7505 304.078 77.8821C306.08 73.0136 309.023 68.5863 312.74 64.853C316.456 61.1196 320.873 58.1533 325.739 56.1234C330.604 54.0935 335.822 53.0397 341.096 53.0223C346.369 53.0049 351.595 54.0241 356.473 56.0218C361.352 58.0195 365.789 60.9566 369.53 64.6653C373.271 68.374 376.244 72.7817 378.278 77.6368C380.312 82.4918 381.368 87.6992 381.386 92.9615C381.386 93.05 381.386 93.1385 381.386 93.2271V123.131C381.384 124.559 380.815 125.927 379.804 126.936C378.793 127.945 377.422 128.513 375.991 128.514H306.466C305.036 128.513 303.665 127.945 302.654 126.936C301.642 125.927 301.074 124.559 301.072 123.131Z" fill="#2F2E41"/>
<path d="M332.977 127.818C349.237 127.818 362.418 114.664 362.418 98.4384C362.418 82.2127 349.237 69.0592 332.977 69.0592C316.717 69.0592 303.536 82.2127 303.536 98.4384C303.536 114.664 316.717 127.818 332.977 127.818Z" fill="#DEC3C7"/>
<path d="M291.572 95.6195C291.582 87.2154 294.931 79.1581 300.887 73.2155C306.842 67.2728 314.916 63.9301 323.338 63.9207H329.332C337.754 63.9301 345.828 67.2729 351.783 73.2155C357.739 79.1582 361.088 87.2154 361.098 95.6195V96.2175H348.431L344.111 84.1442L343.247 96.2175H336.701L334.521 90.1268L334.085 96.2175H291.572V95.6195Z" fill="#2F2E41"/>
<path d="M330.08 131.877C329.485 131.074 329.13 130.119 329.055 129.123C328.981 128.127 329.189 127.13 329.657 126.247C336.009 114.192 344.901 91.9164 333.098 78.1789L332.251 77.193H366.52V128.533L335.39 134.014C335.075 134.07 334.755 134.098 334.435 134.098C333.586 134.098 332.748 133.897 331.991 133.511C331.234 133.125 330.58 132.566 330.082 131.879L330.08 131.877Z" fill="#2F2E41"/>
<path d="M82.4937 14.0107C79.6523 14.0106 76.8747 14.8512 74.5121 16.4264C72.1495 18.0015 70.308 20.2403 69.2206 22.8598C68.1331 25.4793 67.8484 28.3618 68.4026 31.1427C68.9568 33.9236 70.3249 36.4781 72.334 38.4831C74.343 40.4881 76.9028 41.8536 79.6895 42.4069C82.4763 42.9602 85.3648 42.6764 87.99 41.5915C90.6151 40.5066 92.8589 38.6693 94.4376 36.3118C96.0163 33.9544 96.859 31.1827 96.8592 28.3474V28.3466C96.8592 26.464 96.4876 24.5998 95.7656 22.8605C95.0437 21.1212 93.9854 19.5408 92.6514 18.2096C91.3174 16.8784 89.7337 15.8224 87.9907 15.102C86.2477 14.3815 84.3795 14.0107 82.4929 14.0107H82.4937ZM82.4937 18.3111C83.346 18.3111 84.1792 18.5633 84.8879 19.0359C85.5966 19.5084 86.149 20.18 86.4751 20.9658C86.8013 21.7516 86.8867 22.6162 86.7204 23.4504C86.5541 24.2846 86.1437 25.0509 85.541 25.6523C84.9383 26.2537 84.1704 26.6633 83.3345 26.8292C82.4985 26.9952 81.632 26.91 80.8445 26.5845C80.0571 26.2591 79.384 25.7079 78.9105 25.0007C78.437 24.2935 78.1842 23.462 78.1842 22.6115C78.1842 21.471 78.6382 20.3772 79.4464 19.5707C80.2546 18.7642 81.3507 18.3111 82.4937 18.3111ZM82.4937 39.0151C80.7911 39.0073 79.1161 38.5851 77.6141 37.7852C76.112 36.9853 74.8282 35.8318 73.8739 34.4247C73.9432 31.5575 79.6204 29.9793 82.4937 29.9793C85.3669 29.9793 91.0442 31.5575 91.1134 34.4247C90.1582 35.8307 88.8741 36.9835 87.3723 37.7833C85.8704 38.5831 84.196 39.0058 82.4937 39.0151Z" fill="#0D3FB2"/>
<path d="M82.6607 132.412C88.5791 121.589 102.757 114.735 114.355 120.913C119.575 123.693 123.725 128.612 125.043 134.425C126.571 141.178 123.35 147.617 120.025 153.29C118.22 156.369 116.242 159.386 114.749 162.634C113.202 165.997 112.096 169.885 113.261 173.544C114.309 176.84 116.938 179.238 119.816 181C122.993 182.871 126.372 184.377 129.889 185.489C137.128 187.892 144.763 188.878 152.377 188.393C156.161 188.136 159.912 187.531 163.585 186.585C167.491 185.591 171.324 184.331 175.237 183.359C181.769 181.74 189.218 180.935 195.412 184.187C201.43 187.348 204.123 193.959 204.956 200.39C206.495 212.266 201.776 224.589 193.257 232.905C189.169 236.895 184.026 240.192 178.423 241.54C173.535 242.717 167.259 242.642 163.369 238.995C159.028 234.926 160.049 228.4 163.497 224.106C167.897 218.628 175.352 217.312 182.005 217.179C189.573 217.027 197.134 218.151 204.697 217.452C208.389 217.166 212.011 216.294 215.428 214.869C218.432 213.551 221.171 211.701 223.515 209.409C228.184 204.882 231.333 198.851 232.899 192.581C234.785 185.04 234.374 177.116 232.91 169.542C232.13 165.636 231.125 161.779 229.902 157.988C229.396 156.389 226.865 157.073 227.374 158.683C231.882 172.947 234.395 189.439 225.686 202.682C222.082 208.298 216.467 212.331 209.987 213.959C202.449 215.828 194.54 214.904 186.877 214.626C179.591 214.362 171.59 214.647 165.343 218.882C160.22 222.355 156.636 228.962 158.185 235.199C159.678 241.214 165.471 244.265 171.264 244.735C177.343 245.229 183.325 243.193 188.43 240.01C199.049 233.388 206.11 221.742 207.588 209.394C208.358 202.96 207.574 196.03 204.651 190.191C203.11 187.029 200.712 184.363 197.729 182.493C194.754 180.673 191.319 179.777 187.868 179.461C180.029 178.74 172.497 181.426 165.06 183.48C161.261 184.58 157.367 185.322 153.429 185.696C149.607 186.012 145.764 185.949 141.954 185.509C138.174 185.064 134.449 184.239 130.835 183.047C127.294 181.954 123.903 180.425 120.742 178.493C117.953 176.714 115.541 174.165 115.404 170.691C115.255 166.925 117.158 163.402 118.968 160.227C122.544 153.954 126.961 147.819 127.894 140.476C128.71 134.053 126.12 127.722 121.648 123.141C119.406 120.815 116.707 118.977 113.721 117.741C110.734 116.504 107.524 115.897 104.291 115.956C97.655 116.145 91.3011 119.025 86.4201 123.448C83.9992 125.642 81.9621 128.225 80.3924 131.088C79.584 132.566 81.8461 133.887 82.6554 132.408L82.6607 132.412Z" fill="#3F3D56"/>
</g>
<defs>
<clipPath id="clip0_19_565">
<rect width="459" height="307" fill="white" transform="translate(20 3)"/>
</clipPath>
</defs>
</svg>
