<svg width="376" height="276" viewBox="0 0 376 276" fill="none" xmlns="http://www.w3.org/2000/svg">
<g clip-path="url(#clip0_355_284)" filter="url(#filter0_d_355_284)">
<path d="M141.961 45.0458C152.773 53.9153 164.827 46.4896 176.381 45.9222C181.738 45.6591 187.085 46.9253 192.365 47.8699C197.377 48.7665 202.371 50.0705 206.953 52.2944C211.947 54.6334 216.195 58.2646 219.239 62.7964C219.843 63.7226 220.755 63.0386 220.749 61.9314C220.676 50.1738 215.49 51.1259 210.075 51.993C204.928 52.8174 200.552 47.8099 195.472 46.7323C190.157 45.6838 184.785 44.9333 179.382 44.4845C173.525 43.9144 167.653 43.5277 161.767 43.3242C155.167 43.096 148.565 43.0987 141.961 43.3321C140.839 43.3712 140.833 45.0851 141.961 45.0458L141.961 45.0458Z" fill="#3F3D56"/>
<path d="M105.49 139.633C105.644 139.795 105.728 140.01 105.724 140.232C105.72 140.454 105.628 140.666 105.468 140.823C105.308 140.98 105.092 141.07 104.866 141.074C104.639 141.077 104.42 140.995 104.254 140.844C97.1096 134.84 89.965 128.84 82.8204 122.844C82.8122 122.834 82.8023 122.827 82.7913 122.821C82.2951 122.456 81.8258 122.057 81.3868 121.627C74.7375 120.867 67.4298 118.354 60.5066 117.263C54.3935 118.154 48.2978 119.216 42.1672 120.005C36.8258 120.732 31.4408 121.11 26.0481 121.136C21.6599 121.113 22.9295 110.086 18.9493 108.052C14.8117 105.938 6.51405 112.778 5.45342 108.506C4.92939 106.318 4.58832 104.092 4.43359 101.851V87.9179C4.99887 81.8513 14.8525 83.7228 19.532 79.4898C26.5543 73.1376 28.9386 58.236 37.9247 58.059C48.6335 57.8375 59.3458 58.2974 69.9939 59.4357C78.677 60.3725 87.8088 61.2808 95.8392 64.9082C99.2833 66.4677 102.529 75.4876 104.901 78.4181C107.608 81.8414 109.14 86.0166 109.278 90.3457C109.703 99.537 105.437 107.946 103.1 116.623C101.072 124.135 99.9302 133.24 105.49 139.633Z" fill="#56D1D9"/>
<path d="M83.6319 123.724C90.8753 129.81 98.1198 135.895 105.365 141.978C105.531 142.13 105.75 142.212 105.977 142.209C106.204 142.205 106.42 142.115 106.58 141.958C106.74 141.8 106.832 141.588 106.836 141.366C106.84 141.144 106.756 140.929 106.601 140.767C101.042 134.379 102.185 125.273 104.211 117.757C106.551 109.079 110.816 100.673 110.389 91.4844C110.254 87.1542 108.721 82.9776 106.012 79.5551C103.562 76.6752 100.46 74.3966 96.9522 72.9012C88.9221 69.2738 79.792 68.3615 71.105 67.4271C60.4582 66.2878 49.7473 65.8273 39.0396 66.0484C30.0508 66.2296 19.536 66.3905 12.5142 72.7446C6.11936 78.5313 5.24592 87.6313 5.30759 95.6658C5.34331 100.321 5.43442 105.102 6.56329 109.645C7.62446 113.915 9.9257 118.074 14.0646 120.187C18.0456 122.22 22.7752 122.252 27.1593 122.272C32.5519 122.25 37.9369 121.871 43.2776 121.138C53.9666 119.768 64.5535 117.554 75.329 116.885C77.9658 116.721 80.6106 116.648 83.2525 116.703C84.3779 116.726 84.3778 115.012 83.2525 114.989C72.7753 114.774 62.4058 116.538 52.0973 118.144C42.1265 119.698 31.9338 121.162 21.8131 120.376C19.5944 120.274 17.4129 119.78 15.3741 118.916C13.405 117.999 11.7388 116.557 10.5661 114.755C7.93135 110.733 7.43214 105.695 7.20454 101.002C6.9449 96.9413 6.98336 92.8672 7.31961 88.8116C7.70792 84.8793 8.64305 80.8906 10.7792 77.4958C15.6518 69.7521 25.5034 66.5297 33.9115 67.9208C43.3798 69.4874 50.6223 76.9061 65.0703 68.569C69.6056 65.952 75.5487 69.5939 80.7527 70.3635C84.6418 70.8892 88.4779 71.7402 92.2189 72.9073C95.8184 73.9841 99.1722 75.7316 102.096 78.0538C105.157 80.5911 107.288 84.0395 108.164 87.8737C110.17 96.7035 106.193 105.517 103.564 113.78C101.221 121.146 99.2226 129.796 102.377 137.228C103.113 138.956 104.121 140.558 105.365 141.978L106.601 140.767C99.358 134.681 92.1135 128.596 84.8681 122.512C84.0181 121.798 82.7759 123.005 83.6319 123.724H83.6319Z" fill="#E07A7A"/>
<path d="M52.7683 83.8515H26.4157C26.1738 83.8515 25.9419 83.7574 25.7709 83.5898C25.6 83.4221 25.5039 83.1948 25.5039 82.9578C25.5039 82.7208 25.6 82.4934 25.7709 82.3258C25.9419 82.1582 26.1738 82.0641 26.4157 82.0641H52.7683C53.0101 82.0641 53.242 82.1582 53.413 82.3258C53.584 82.4934 53.6801 82.7208 53.6801 82.9578C53.6801 83.1948 53.584 83.4221 53.413 83.5898C53.242 83.7574 53.0101 83.8515 52.7683 83.8515Z" fill="white"/>
<path d="M52.7683 102.91H26.4157C26.2959 102.91 26.1774 102.887 26.0667 102.842C25.9561 102.797 25.8556 102.732 25.7709 102.649C25.6863 102.566 25.6191 102.467 25.5733 102.359C25.5275 102.25 25.5039 102.134 25.5039 102.017C25.5039 101.899 25.5275 101.783 25.5733 101.675C25.6191 101.566 25.6863 101.468 25.7709 101.385C25.8556 101.302 25.9561 101.236 26.0667 101.191C26.1774 101.146 26.2959 101.123 26.4157 101.123H52.7683C53.0101 101.123 53.242 101.217 53.413 101.385C53.584 101.552 53.6801 101.78 53.6801 102.017C53.6801 102.254 53.584 102.481 53.413 102.649C53.242 102.816 53.0101 102.91 52.7683 102.91Z" fill="white"/>
<path d="M74.1709 93.3872H26.4157C26.1738 93.3872 25.9419 93.293 25.7709 93.1254C25.6 92.9578 25.5039 92.7305 25.5039 92.4934C25.5039 92.2564 25.6 92.0291 25.7709 91.8615C25.9419 91.6938 26.1738 91.5997 26.4157 91.5997H74.1709C74.4127 91.5997 74.6446 91.6938 74.8156 91.8615C74.9866 92.0291 75.0826 92.2564 75.0826 92.4934C75.0826 92.7305 74.9866 92.9578 74.8156 93.1254C74.6446 93.293 74.4127 93.3872 74.1709 93.3872Z" fill="white"/>
<path d="M134.628 183.047C134.783 183.21 134.867 183.425 134.863 183.647C134.859 183.868 134.767 184.08 134.607 184.237C134.447 184.394 134.231 184.484 134.004 184.488C133.778 184.492 133.558 184.41 133.393 184.258C126.248 178.255 119.104 172.255 111.959 166.258C111.951 166.249 111.941 166.241 111.93 166.236C111.434 165.87 110.964 165.471 110.525 165.042C103.876 164.282 96.5682 161.768 89.6451 160.677C83.5319 161.568 76.2708 168.343 70.1401 169.132C64.7987 169.86 59.4138 170.237 54.0211 170.263C49.6329 170.24 50.9025 156.357 46.9222 154.323C42.7846 152.209 35.6525 156.193 34.5919 151.92C34.0499 149.744 31.374 147.51 31.1992 145.265V131.333C31.7645 125.266 35.8623 119.256 40.5419 115.023C47.5641 108.671 58.077 108.506 67.0632 108.328C77.772 108.107 88.4842 108.567 99.1323 109.705C107.815 110.642 116.947 111.55 124.978 115.178C128.485 116.675 131.588 118.953 134.04 121.833C136.746 125.256 138.278 129.431 138.416 133.76C138.841 142.952 134.576 151.36 132.239 160.038C130.211 167.549 129.069 176.655 134.628 183.047Z" fill="#56D1D9"/>
<path d="M112.771 167.139C120.014 173.225 127.258 179.309 134.504 185.393C134.67 185.545 134.889 185.627 135.116 185.623C135.342 185.619 135.559 185.529 135.719 185.372C135.879 185.215 135.971 185.003 135.975 184.781C135.979 184.559 135.895 184.344 135.74 184.181C130.181 177.794 131.323 168.688 133.35 161.172C135.689 152.494 139.955 144.088 139.528 134.899C139.393 130.569 137.86 126.392 135.15 122.97C132.701 120.09 129.599 117.811 126.091 116.316C118.061 112.688 108.931 111.776 100.244 110.842C89.5969 109.702 78.8859 109.242 68.1783 109.463C59.1895 109.644 48.6746 109.805 41.6528 116.159C35.258 121.946 34.3846 131.046 34.4463 139.08C34.482 143.735 34.5731 148.516 35.702 153.059C36.7631 157.33 39.0644 161.489 43.2033 163.602C47.1843 165.634 51.9139 165.666 56.2979 165.687C61.6906 165.665 67.0756 165.286 72.4162 164.553C83.1052 163.182 93.6922 160.969 104.468 160.3C107.104 160.136 109.749 160.063 112.391 160.117C113.517 160.14 113.516 158.426 112.391 158.403C101.914 158.189 91.5445 159.953 81.236 161.559C71.2652 163.112 61.0724 164.577 50.9518 163.791C48.7331 163.689 46.5516 163.194 44.5127 162.33C42.5436 161.413 40.8775 159.972 39.7048 158.17C37.07 154.148 36.5708 149.109 36.3432 144.417C36.0836 140.356 36.122 136.282 36.4583 132.226C36.8466 128.294 37.7817 124.305 39.9178 120.91C44.7905 113.167 55.8991 106.783 63.0502 111.335C71.2204 116.537 81.6698 116.762 94.2089 111.984C99.1141 110.114 104.687 113.008 109.891 113.778C113.78 114.304 117.617 115.155 121.358 116.322C124.957 117.399 128.311 119.146 131.235 121.468C134.296 124.006 136.426 127.454 137.302 131.288C139.309 140.118 135.332 148.932 132.703 157.195C130.36 164.56 128.361 173.211 131.516 180.643C132.252 182.37 133.26 183.973 134.504 185.393L135.74 184.181C128.497 178.095 121.252 172.011 114.007 165.927C113.157 165.213 111.915 166.419 112.771 167.139H112.771Z" fill="#E07A7A"/>
<path d="M81.9051 127.266H55.5524C55.3106 127.266 55.0786 127.172 54.9077 127.004C54.7367 126.837 54.6406 126.609 54.6406 126.372C54.6406 126.135 54.7367 125.908 54.9077 125.74C55.0786 125.573 55.3106 125.479 55.5524 125.479H81.9051C82.1469 125.479 82.3788 125.573 82.5498 125.74C82.7207 125.908 82.8168 126.135 82.8168 126.372C82.8168 126.609 82.7207 126.837 82.5498 127.004C82.3788 127.172 82.1469 127.266 81.9051 127.266Z" fill="white"/>
<path d="M81.9051 146.325H55.5524C55.3106 146.325 55.0786 146.231 54.9077 146.063C54.7367 145.896 54.6406 145.668 54.6406 145.431C54.6406 145.194 54.7367 144.967 54.9077 144.799C55.0786 144.632 55.3106 144.537 55.5524 144.537H81.9051C82.1469 144.537 82.3788 144.632 82.5498 144.799C82.7207 144.967 82.8168 145.194 82.8168 145.431C82.8168 145.668 82.7207 145.896 82.5498 146.063C82.3788 146.231 82.1469 146.325 81.9051 146.325Z" fill="white"/>
<path d="M103.308 136.802H55.5524C55.3106 136.802 55.0786 136.708 54.9077 136.54C54.7367 136.372 54.6406 136.145 54.6406 135.908C54.6406 135.671 54.7367 135.444 54.9077 135.276C55.0786 135.108 55.3106 135.014 55.5524 135.014H103.308C103.549 135.014 103.781 135.108 103.952 135.276C104.123 135.444 104.219 135.671 104.219 135.908C104.219 136.145 104.123 136.372 103.952 136.54C103.781 136.708 103.549 136.802 103.308 136.802Z" fill="white"/>
<path d="M278.273 214.738H204.628C203.952 214.738 203.304 214.475 202.826 214.007C202.349 213.538 202.08 212.903 202.08 212.241C202.08 211.578 202.349 210.943 202.826 210.474C203.304 210.006 203.952 209.743 204.628 209.743H278.273C278.949 209.743 279.597 210.006 280.075 210.474C280.553 210.943 280.821 211.578 280.821 212.241C280.821 212.903 280.553 213.538 280.075 214.007C279.597 214.475 278.949 214.738 278.273 214.738Z" fill="#56D1D9"/>
<path d="M278.273 268H204.628C203.952 268 203.304 267.737 202.826 267.268C202.349 266.8 202.08 266.165 202.08 265.502C202.08 264.84 202.349 264.205 202.826 263.736C203.304 263.268 203.952 263.005 204.628 263.005H278.273C278.949 263.005 279.597 263.268 280.075 263.736C280.553 264.205 280.821 264.84 280.821 265.502C280.821 266.165 280.553 266.8 280.075 267.268C279.597 267.737 278.949 268 278.273 268Z" fill="#56D1D9"/>
<path d="M338.085 241.387H204.628C204.293 241.387 203.961 241.323 203.652 241.198C203.342 241.072 203.061 240.888 202.824 240.656C202.587 240.424 202.399 240.149 202.27 239.846C202.142 239.542 202.076 239.217 202.076 238.889C202.076 238.561 202.142 238.236 202.27 237.932C202.399 237.629 202.587 237.353 202.824 237.122C203.061 236.89 203.342 236.706 203.652 236.58C203.961 236.455 204.293 236.391 204.628 236.391H338.085C338.76 236.392 339.407 236.656 339.884 237.124C340.361 237.592 340.629 238.227 340.629 238.889C340.629 239.551 340.361 240.185 339.884 240.654C339.407 241.122 338.76 241.386 338.085 241.387Z" fill="#56D1D9"/>
<path d="M163.061 238.582L167.245 242.442L184.762 228.108L178.588 222.411L163.061 238.582Z" fill="#FFB6B6"/>
<path d="M170.677 255.273L168.352 244.646L171.17 241.711L169.653 240.467L164.943 236.62L163.791 235.674L152.957 245.226L156.098 248.12L159.445 245.733L158.087 249.959L166.405 257.634C166.803 258.002 167.312 258.235 167.855 258.3C168.399 258.364 168.949 258.257 169.426 257.993C169.903 257.73 170.282 257.324 170.507 256.834C170.732 256.345 170.792 255.798 170.677 255.273V255.273Z" fill="#2F2E41"/>
<path d="M142.664 253.508L148.344 254.355L154.452 232.802L146.069 231.553L142.664 253.508Z" fill="#FFB6B6"/>
<path d="M158.609 263.001L150.536 255.551L151.154 251.566L149.184 251.387L143.078 250.844L141.582 250.708L138.203 264.602L142.465 265.234L143.836 261.406L145.168 265.639L156.461 267.323C157.002 267.403 157.556 267.312 158.041 267.063C158.526 266.813 158.916 266.418 159.156 265.936C159.396 265.453 159.472 264.908 159.374 264.38C159.275 263.852 159.007 263.369 158.609 263.001L158.609 263.001Z" fill="#2F2E41"/>
<path d="M197.31 100.404L213.6 129.003C213.6 129.003 212.92 187.821 215.085 190.003C217.25 192.184 219.21 194.141 217.25 194.123C215.29 194.106 215.922 208.02 215.922 208.02L179.791 235.44L171.05 228.585L192.98 202.051L180.869 147.739C180.869 147.739 172.168 199.101 170.6 200.638C169.032 202.175 168.086 202.164 169.735 203.707C171.384 205.25 169.735 208.738 169.735 208.738L152.545 243.71L143.221 242.558C143.221 242.558 144.837 214.008 150.466 201.751V143.83C150.042 148.796 169.874 98.5325 157.747 102.305C161.583 101.112 197.31 100.404 197.31 100.404Z" fill="#2F2E41"/>
<path d="M189.837 32.2501H176.37L174.464 39.7259L164.109 42.5325C164.109 42.5325 158.988 75.8246 163.289 78.51C167.59 81.1954 164.591 89.5954 164.591 89.5954C164.591 89.5954 153.879 100.935 155.165 102.615C156.45 104.295 159.058 101.739 156.04 104.697C153.023 107.656 151.309 107.235 152.166 108.075C152.695 108.608 153.106 109.244 153.372 109.941L149.676 119.374C149.676 119.374 169.304 123.196 179.159 117.736C189.014 112.276 210.866 122.776 210.866 122.776C210.866 122.776 209.742 117.263 208.804 116.449C207.866 115.636 205.68 117.693 207.202 114.984C208.723 112.275 210.009 113.536 208.723 112.275C207.438 111.015 201.868 94.2154 201.868 94.2154C201.868 94.2154 197.583 84.9754 202.296 81.1954C207.009 77.4154 208.804 65.017 208.804 65.017L203.154 42.5325L193.727 40.4552L189.837 32.2501Z" fill="#E07A7A"/>
<path d="M136.529 118.089L139.763 105.381L132.615 102.557L129.683 116.112C129.015 116.597 128.497 117.255 128.189 118.013C127.881 118.771 127.795 119.598 127.94 120.401C128.085 121.204 128.455 121.951 129.01 122.559C129.565 123.167 130.282 123.611 131.08 123.842C131.878 124.073 132.726 124.08 133.528 123.864C134.331 123.648 135.056 123.217 135.622 122.619C136.188 122.022 136.573 121.281 136.733 120.481C136.893 119.68 136.823 118.852 136.529 118.089V118.089Z" fill="#FFB6B6"/>
<path d="M167.947 41.683L167.734 41.647C165.749 41.3128 163.711 41.4577 161.797 42.0693C159.883 42.6809 158.149 43.7407 156.746 45.1569C153.085 48.8494 136.741 76.3096 137.329 80.899C137.878 85.1789 138.089 84.2268 136.092 86.4121C134.096 88.5974 133.336 85.2695 133.305 89.8192C133.275 94.3688 135.048 94.3292 133.163 95.4417C131.278 96.5541 130.032 95.7792 130.376 98.8487C130.72 101.918 130.193 102.733 130.082 103.806C129.97 104.878 127.264 111.762 127.264 111.762C127.264 111.762 135.229 113.859 138.441 116.998C138.441 116.998 138.806 109.23 140.428 108.525C142.049 107.82 143.559 108.187 143.103 106.191C142.648 104.194 140.307 103.31 143.175 103.379C146.042 103.449 150.472 88.4993 150.472 88.4993L169.627 54.2424L167.947 41.683Z" fill="#E07A7A"/>
<path d="M211.173 124.384L211.749 111.299L219.42 110.578L218.31 124.391C218.811 125.043 219.116 125.818 219.193 126.63C219.269 127.442 219.112 128.259 218.741 128.989C218.369 129.719 217.797 130.333 217.09 130.761C216.382 131.19 215.566 131.417 214.734 131.416C213.902 131.415 213.086 131.187 212.379 130.757C211.672 130.326 211.102 129.711 210.732 128.981C210.362 128.25 210.207 127.433 210.285 126.621C210.363 125.809 210.671 125.034 211.173 124.384Z" fill="#FFB6B6"/>
<path d="M203.155 42.3808L203.37 42.4056C205.37 42.6369 207.282 43.3424 208.941 44.4611C210.599 45.5799 211.955 47.0781 212.89 48.8261C215.333 53.3849 223.06 84.2617 221.168 88.499C219.404 92.4506 219.477 91.4789 220.759 94.1296C222.041 96.7802 223.733 93.8003 222.446 98.1716C221.159 102.543 219.47 102.012 220.955 103.603C222.441 105.194 223.86 104.797 222.642 107.645C221.424 110.493 221.693 111.42 221.49 112.48C221.286 113.54 221.89 120.893 221.89 120.893C221.89 120.893 213.645 120.689 209.657 122.807C209.657 122.807 211.554 115.256 210.203 114.129C208.852 113.002 207.298 112.935 208.313 111.147C209.328 109.359 211.828 109.161 209.058 108.431C206.288 107.701 206.366 92.1329 206.366 92.1329L197.91 53.9574L203.155 42.3808Z" fill="#E07A7A"/>
<path d="M152.505 23.4297C152.398 27.9356 154.116 32.2986 156.584 36.1307C157.408 33.9056 158.562 31.8116 160.01 29.9165C159.317 34.1154 160.055 38.4211 162.11 42.1673C162.182 42.2181 162.257 42.2653 162.335 42.3086C164.346 43.4948 166.897 43.9752 169.073 43.1185C164.577 38.3677 164.004 30.4964 167.774 25.1677C168.841 23.6557 170.221 22.3184 170.882 20.5976C171.926 17.8521 170.923 14.8292 170.29 11.9667C169.698 9.30257 169.594 6.13223 171.418 4.17976C171.223 3.90691 170.958 3.68972 170.649 3.55044C170.341 3.41117 170 3.35482 169.662 3.38717C168.538 3.54284 167.719 4.50069 167.198 5.48722C166.677 6.47372 166.333 7.56712 165.607 8.41918C164.262 10.0141 161.971 10.3911 160.041 11.2317C155.366 13.2728 152.617 18.4159 152.505 23.4297Z" fill="#2F2E41"/>
<path d="M191.855 20.8534C191.588 19.9369 193.429 25.5395 192.541 25.6407C188.494 26.0958 182.939 28.4649 180.12 29.5702C179.993 29.5557 179.866 29.5413 179.743 29.5232C179.441 29.4907 179.146 29.4438 178.855 29.3896C172.291 28.1723 169.768 18.2898 169.768 18.1995C169.768 17.7553 170.855 5.55312 172.569 5.37252C173.019 5.32465 173.471 5.30054 173.924 5.30028H178.176C179.056 5.11442 179.948 4.9877 180.846 4.92102H180.853C189.413 4.2817 196.163 9.39624 195.532 15.6197C195.529 15.6269 195.521 15.6341 195.517 15.6414C195.334 15.9086 195.174 16.1615 195.032 16.4035C194.894 16.631 194.778 16.8477 194.677 17.0536C193.897 18.6429 195.903 20.6427 194.573 21.016C192.804 21.5124 199.225 37.8297 192.224 37.8297C195.629 38.7788 192.592 23.3818 191.855 20.8534Z" fill="#2F2E41"/>
<path d="M184.214 30.4278C189.774 30.4278 194.282 26.0094 194.282 20.5591C194.282 15.1087 189.774 10.6904 184.214 10.6904C178.654 10.6904 174.146 15.1087 174.146 20.5591C174.146 26.0094 178.654 30.4278 184.214 30.4278Z" fill="#FFB6B6"/>
<path d="M195.534 16.1579C195.366 16.2446 195.202 16.324 195.034 16.4035C194.858 16.4866 194.683 16.5697 194.507 16.6455C191.136 18.1445 188.392 18.3106 186.727 16.1579C186.683 15.0252 186.423 13.9105 185.962 12.871C186.043 14.0327 185.731 15.1882 185.073 16.1579H181.721C178.268 18.4045 176.494 18.6393 178.891 26.015C179.559 28.0702 182.216 40.0294 181.171 41.8029C180.869 41.7704 177.652 28.6713 177.36 28.6172C170.797 27.3999 166.627 16.8008 167.161 16.2012C167.158 14.4962 167.558 12.8137 168.33 11.2853C169.305 9.34906 170.826 7.72716 172.712 6.61144C173.837 6.07702 175.009 5.64537 176.214 5.32197C176.244 5.31474 176.27 5.3075 176.3 5.30029C176.67 5.20276 177.047 5.11246 177.424 5.03661C178.203 4.87538 178.991 4.7584 179.783 4.68626C179.839 4.68265 179.895 4.67903 179.948 4.67903C180.264 4.67976 180.575 4.7633 180.847 4.92104C180.851 4.92104 180.851 4.92464 180.855 4.92464C181.049 5.03621 181.22 5.1848 181.355 5.36169C181.593 5.65931 181.722 6.02714 181.721 6.40556H185.454C185.592 6.40556 185.73 6.40917 185.868 6.41638C188.36 6.49985 190.73 7.49174 192.515 9.19794C194.3 10.9041 195.371 13.2018 195.519 15.6414C195.53 15.8147 195.534 15.9845 195.534 16.1579Z" fill="#2F2E41"/>
<path d="M173.521 13.0031C177.184 13.0031 180.154 10.0923 180.154 6.50156C180.154 2.91085 177.184 0 173.521 0C169.858 0 166.889 2.91085 166.889 6.50156C166.889 10.0923 169.858 13.0031 173.521 13.0031Z" fill="#2F2E41"/>
<path d="M236.544 202.388C236.815 202.401 237.083 202.331 237.312 202.189C237.541 202.047 237.72 201.839 237.825 201.594C237.929 201.348 237.955 201.077 237.897 200.818C237.839 200.558 237.702 200.322 237.502 200.142L237.412 199.788C237.424 199.76 237.436 199.732 237.448 199.704C237.721 199.072 238.178 198.533 238.762 198.155C239.346 197.777 240.032 197.577 240.731 197.58C241.431 197.582 242.115 197.787 242.696 198.17C243.278 198.552 243.731 199.094 243.999 199.727C245.07 202.257 246.434 204.791 246.77 207.466C246.918 208.648 246.856 209.846 246.586 211.007C249.102 205.626 250.409 199.778 250.418 193.858C250.418 192.373 250.334 190.889 250.165 189.412C250.026 188.202 249.833 187.001 249.586 185.808C248.237 179.335 245.341 173.268 241.136 168.105C239.1 167.016 237.454 165.342 236.419 163.308C236.045 162.577 235.78 161.797 235.633 160.991C235.862 161.021 236.499 157.593 236.325 157.383C236.645 156.907 237.218 156.67 237.567 156.206C239.305 153.896 241.7 154.3 242.95 157.438C245.62 158.759 245.646 160.95 244.008 163.058C242.965 164.398 242.822 166.212 241.907 167.647C242.001 167.765 242.099 167.88 242.193 167.998C243.914 170.166 245.413 172.494 246.67 174.949C246.364 172.199 246.729 169.417 247.734 166.832C248.753 164.423 250.662 162.394 252.344 160.311C252.789 159.752 253.393 159.334 254.079 159.111C254.766 158.888 255.505 158.87 256.203 159.058C256.9 159.247 257.525 159.634 257.998 160.17C258.472 160.707 258.772 161.369 258.861 162.073C258.865 162.103 258.868 162.134 258.871 162.165C258.622 162.303 258.377 162.449 258.138 162.605C257.837 162.801 257.605 163.083 257.47 163.411C257.335 163.74 257.305 164.101 257.383 164.447C257.461 164.793 257.644 165.108 257.908 165.35C258.172 165.592 258.504 165.75 258.861 165.804L258.898 165.81C258.809 166.692 258.652 167.567 258.427 168.426C260.585 176.604 255.927 179.582 249.277 179.716C249.13 179.79 248.987 179.864 248.841 179.934C250.103 183.442 250.895 187.095 251.197 190.803C251.367 192.991 251.357 195.188 251.167 197.374L251.178 197.297C251.66 194.866 252.983 192.673 254.923 191.087C257.805 188.767 261.877 187.912 264.986 186.047C265.317 185.839 265.701 185.728 266.094 185.727C266.486 185.726 266.871 185.835 267.203 186.041C267.534 186.248 267.798 186.543 267.964 186.891C268.131 187.24 268.191 187.628 268.14 188.01L268.127 188.091C267.664 188.277 267.212 188.49 266.776 188.73C266.526 188.868 266.282 189.014 266.042 189.17C265.742 189.366 265.509 189.648 265.374 189.976C265.24 190.305 265.209 190.666 265.287 191.012C265.366 191.358 265.549 191.673 265.812 191.915C266.076 192.157 266.408 192.316 266.766 192.37L266.802 192.375C266.828 192.379 266.851 192.382 266.877 192.386C266.085 194.24 264.974 195.946 263.591 197.43C262.243 204.569 256.449 205.246 250.252 203.167H250.248C249.568 206.063 248.583 208.883 247.309 211.579H236.807C236.77 211.465 236.736 211.347 236.702 211.233C237.674 211.292 238.65 211.235 239.608 211.063C238.828 210.126 238.049 209.181 237.27 208.244C237.253 208.226 237.236 208.208 237.221 208.189C236.826 207.709 236.427 207.233 236.032 206.753L236.032 206.753C236.01 205.283 236.183 203.816 236.544 202.389L236.544 202.388Z" fill="#56D1D9"/>
<path d="M83.0898 267.223C83.0896 267.312 83.1073 267.401 83.1421 267.484C83.1768 267.566 83.2279 267.641 83.2924 267.704C83.3568 267.768 83.4334 267.818 83.5176 267.852C83.6019 267.886 83.6922 267.903 83.7834 267.903H371.252C371.436 267.903 371.612 267.831 371.742 267.704C371.873 267.576 371.946 267.403 371.946 267.223C371.946 267.043 371.873 266.87 371.742 266.742C371.612 266.615 371.436 266.543 371.252 266.543H83.7834C83.6922 266.543 83.6019 266.56 83.5177 266.595C83.4334 266.629 83.3568 266.679 83.2924 266.742C83.2279 266.805 83.1769 266.88 83.1421 266.963C83.1073 267.045 83.0896 267.134 83.0898 267.223Z" fill="#CCCCCC"/>
<path d="M213.266 121.355C214.076 122.194 212.848 123.283 211.902 122.564C204.014 116.57 196.127 110.58 188.239 104.593C188.23 104.584 188.219 104.576 188.207 104.57C187.663 104.208 187.145 103.81 186.657 103.378C179.316 102.62 171.248 100.11 163.605 99.0208C156.856 99.9105 150.127 100.971 143.359 101.758C137.455 102.485 131.513 102.863 125.563 102.888C120.719 102.865 115.501 102.836 111.107 100.806C106.539 98.6957 103.998 94.5437 102.827 90.2776C102.25 88.1002 101.873 85.8765 101.701 83.6331V69.7227C102.325 63.6657 104.23 57.6658 109.396 53.4395C117.148 47.0974 128.754 46.932 138.675 46.7552C150.494 46.534 162.315 46.993 174.079 48.1297C183.665 49.0651 193.746 49.9719 202.612 53.5935C206.414 55.1506 209.998 57.3122 212.616 60.238C215.563 63.5526 217.267 67.7536 217.448 72.1466C217.917 81.3233 213.208 89.7186 210.628 98.382C208.389 105.882 207.128 114.973 213.266 121.355Z" fill="#47B5FF"/>
<path d="M154.751 62.1442H128.398C128.278 62.1442 128.16 62.1211 128.049 62.0762C127.939 62.0313 127.838 61.9655 127.753 61.8825C127.669 61.7995 127.602 61.701 127.556 61.5925C127.51 61.4841 127.486 61.3679 127.486 61.2505C127.486 61.1331 127.51 61.0169 127.556 60.9085C127.602 60.8001 127.669 60.7015 127.753 60.6185C127.838 60.5355 127.939 60.4697 128.049 60.4248C128.16 60.3799 128.278 60.3568 128.398 60.3568H154.751C154.993 60.3568 155.224 60.4509 155.395 60.6185C155.566 60.7861 155.662 61.0135 155.662 61.2505C155.662 61.4875 155.566 61.7149 155.395 61.8825C155.224 62.0501 154.993 62.1442 154.751 62.1442Z" fill="white"/>
<path d="M154.751 81.203H128.398C128.156 81.203 127.924 81.1089 127.753 80.9413C127.582 80.7737 127.486 80.5463 127.486 80.3093C127.486 80.0723 127.582 79.8449 127.753 79.6773C127.924 79.5097 128.156 79.4156 128.398 79.4156H154.751C154.993 79.4156 155.224 79.5097 155.395 79.6773C155.566 79.8449 155.662 80.0723 155.662 80.3093C155.662 80.5463 155.566 80.7737 155.395 80.9413C155.224 81.1089 154.993 81.203 154.751 81.203Z" fill="white"/>
<path d="M176.153 71.6799H128.398C128.156 71.6799 127.924 71.5857 127.753 71.4181C127.582 71.2505 127.486 71.0232 127.486 70.7861C127.486 70.5491 127.582 70.3218 127.753 70.1542C127.924 69.9865 128.156 69.8924 128.398 69.8924H176.153C176.395 69.8924 176.627 69.9865 176.798 70.1542C176.969 70.3218 177.065 70.5491 177.065 70.7861C177.065 71.0232 176.969 71.2505 176.798 71.4181C176.627 71.5857 176.395 71.6799 176.153 71.6799Z" fill="white"/>
<path d="M219.24 62.7964C221.682 66.6168 223.064 71.0141 222.641 75.5466C222.276 79.4575 220.639 83.1355 218.85 86.6016C216.996 90.1935 214.92 93.6815 213.404 97.4318C211.739 101.52 211.124 105.945 211.612 110.321C211.912 113.161 212.497 115.964 213.048 118.765L214.729 127.317L216.19 126.483L192.019 105.999C191.172 105.281 189.93 106.488 190.783 107.211L214.954 127.695C215.093 127.822 215.269 127.903 215.458 127.924C215.647 127.945 215.838 127.906 216.002 127.812C216.166 127.718 216.295 127.575 216.369 127.404C216.444 127.232 216.46 127.042 216.415 126.861C215.427 121.837 214.26 116.81 213.536 111.741C213.12 109.185 213.062 106.585 213.363 104.014C213.659 102.054 214.184 100.133 214.929 98.2914C217.828 90.8655 223.258 84.3696 224.305 76.296C224.961 71.2376 223.485 66.211 220.749 61.9314C220.153 60.9991 218.64 61.8583 219.24 62.7964V62.7964Z" fill="#3F3D56"/>
<path d="M193.546 98.5022L157.798 102.648L139.925 104.72C134.479 105.352 128.805 106.238 123.364 105.121C114.204 103.24 108.516 95.1038 106.727 86.5293C105.619 81.2215 106.011 75.668 106.943 70.3654C107.44 67.5384 108.095 64.7409 108.804 61.9584C109.435 59.4787 109.906 56.8086 110.997 54.4744C111.868 52.5764 113.163 50.895 114.787 49.5549C116.411 48.2148 118.323 47.2504 120.379 46.7332C121.663 46.4752 122.965 46.3062 124.273 46.2274C125.743 46.0828 127.215 45.9497 128.687 45.8281C131.632 45.5849 134.58 45.3879 137.532 45.2373C139.007 45.1619 140.484 45.0981 141.96 45.0458C143.082 45.0056 143.087 43.2917 141.96 43.3321C135.815 43.5526 129.683 43.9701 123.562 44.5847C121.068 44.8365 118.763 45.2004 116.512 46.3454C114.567 47.3426 112.859 48.7312 111.499 50.4204C110.106 52.1632 109.084 54.1624 108.494 56.2995C107.689 59.1392 106.959 62.007 106.293 64.8808C104.95 70.6734 103.985 76.644 104.433 82.5992C105.097 91.4072 109.399 100.805 117.747 104.998C122.677 107.474 128.303 107.585 133.705 107.112C139.73 106.585 145.738 105.76 151.744 105.063L188.933 100.751L193.546 100.216C194.65 100.088 194.663 98.3726 193.546 98.5022H193.546Z" fill="#3F3D56"/>
</g>
<defs>
<filter id="filter0_d_355_284" x="0.433594" y="0" width="375.514" height="276" filterUnits="userSpaceOnUse" color-interpolation-filters="sRGB">
<feFlood flood-opacity="0" result="BackgroundImageFix"/>
<feColorMatrix in="SourceAlpha" type="matrix" values="0 0 0 0 0 0 0 0 0 0 0 0 0 0 0 0 0 0 127 0" result="hardAlpha"/>
<feOffset dy="4"/>
<feGaussianBlur stdDeviation="2"/>
<feComposite in2="hardAlpha" operator="out"/>
<feColorMatrix type="matrix" values="0 0 0 0 0 0 0 0 0 0 0 0 0 0 0 0 0 0 0.25 0"/>
<feBlend mode="normal" in2="BackgroundImageFix" result="effect1_dropShadow_355_284"/>
<feBlend mode="normal" in="SourceGraphic" in2="effect1_dropShadow_355_284" result="shape"/>
</filter>
<clipPath id="clip0_355_284">
<rect width="367.513" height="268" fill="white" transform="translate(4.43359)"/>
</clipPath>
</defs>
</svg>
