<svg width="459" height="307" viewBox="0 0 459 307" fill="none" xmlns="http://www.w3.org/2000/svg">
<g clip-path="url(#clip0_19_540)">
<path d="M459 163.166C459 225.263 419.559 278.172 364.314 298.305C355.91 301.373 347.235 303.645 338.404 305.091C314.109 309.067 289.2 306.81 266.02 298.531C210.426 278.564 170.696 225.477 170.722 163.135C170.722 83.7302 235.257 19.3317 314.861 19.3317C344.946 19.288 374.284 28.6802 398.728 46.1807C435.222 72.2714 459 114.947 459 163.166Z" fill="#E5E5E5"/>
<path d="M364.314 298.305C355.91 301.373 347.235 303.645 338.404 305.091C314.109 309.067 289.2 306.81 266.02 298.531L272.677 271.878L273.078 270.279L286.662 270.331L354.906 270.575L355.779 273.151L364.314 298.305Z" fill="#2F2E41"/>
<path d="M125.205 0H0V141.374H125.205V0Z" fill="#E6E6E6"/>
<path d="M122.753 2.99084H2.23242V138.383H122.753V2.99084Z" fill="white"/>
<path d="M62.6027 133.569C66.3338 133.569 69.3584 130.551 69.3584 126.828C69.3584 123.105 66.3338 120.086 62.6027 120.086C58.8716 120.086 55.8469 123.105 55.8469 126.828C55.8469 130.551 58.8716 133.569 62.6027 133.569Z" fill="#E6E6E6"/>
<path d="M61.4613 50.9169H22.6587V54.878H61.4613V50.9169Z" fill="#E6E6E6"/>
<path d="M81.2223 62.7866H22.6587V66.7477H81.2223V62.7866Z" fill="#0D3FB2"/>
<path d="M75.4738 74.731H22.6587V78.6921H75.4738V74.731Z" fill="#E6E6E6"/>
<path d="M104.216 86.3597H22.6587V90.3208H104.216V86.3597Z" fill="#0D3FB2"/>
<path d="M89.974 97.4346H23.5063V101.396H89.974V97.4346Z" fill="#E6E6E6"/>
<path d="M178.037 230.044C178.513 230.532 178.95 231.056 179.344 231.613L240.541 230.119L247.68 217.1L268.777 225.284L258.381 249.556C257.542 251.517 256.087 253.153 254.236 254.218C252.386 255.284 250.238 255.722 248.117 255.466L178.974 247.131C177.343 249.192 175.122 250.708 172.607 251.478C170.091 252.248 167.4 252.236 164.892 251.443C162.384 250.649 160.177 249.113 158.565 247.038C156.953 244.962 156.013 242.446 155.869 239.825C155.725 237.203 156.384 234.6 157.759 232.361C159.133 230.122 161.159 228.354 163.565 227.292C165.971 226.23 168.645 225.924 171.229 226.415C173.814 226.906 176.188 228.171 178.035 230.041L178.037 230.044Z" fill="#DEC3C7"/>
<path d="M260.406 155.707L289.046 146.341L297.457 134.83L338.391 137.247L344.401 150.68L366.227 160.972L362.873 223.136L357.135 281.314C327.626 266.066 272.556 277.691 272.074 277.88L260.406 155.707Z" fill="#0D3FB2"/>
<path d="M266.528 239.85L237.397 228.22L237.522 227.702C237.646 227.179 250.045 175.479 251.691 167.17C253.406 158.515 259.672 156.121 259.938 156.024L260.132 155.953L271.661 159.454L276.724 199.153L266.528 239.85Z" fill="#0D3FB2"/>
<path d="M329.428 278.757C330.11 278.74 330.794 278.778 331.47 278.869L371.981 233.072L367.269 219L387.626 209.127L398.395 233.236C399.265 235.183 399.479 237.36 399.004 239.439C398.528 241.518 397.39 243.387 395.76 244.766L342.625 289.691C343.03 292.285 342.634 294.941 341.489 297.305C340.344 299.669 338.506 301.63 336.217 302.926C333.929 304.222 331.299 304.791 328.678 304.56C326.058 304.328 323.569 303.305 321.545 301.628C319.521 299.951 318.056 297.699 317.346 295.17C316.636 292.642 316.714 289.958 317.569 287.475C318.425 284.993 320.018 282.829 322.136 281.271C324.254 279.714 326.798 278.837 329.428 278.757Z" fill="#DEC3C7"/>
<path d="M368.747 237.53L351.848 197.864L358.439 170.235L365.541 161.282C366.061 161.06 366.622 160.948 367.188 160.953C367.753 160.958 368.312 161.081 368.827 161.312C371.448 162.364 373.676 165.588 375.457 170.894L391.294 215.909L368.747 237.53Z" fill="#0D3FB2"/>
<path d="M281.072 120.131V90.2271C281.055 84.9647 282.076 79.7505 284.078 74.8821C286.08 70.0136 289.023 65.5863 292.74 61.853C296.456 58.1196 300.873 55.1533 305.739 53.1234C310.604 51.0935 315.822 50.0397 321.096 50.0223C326.369 50.0049 331.595 51.0241 336.473 53.0218C341.352 55.0195 345.789 57.9566 349.53 61.6653C353.271 65.374 356.244 69.7817 358.278 74.6368C360.312 79.4918 361.368 84.6992 361.386 89.9615C361.386 90.05 361.386 90.1385 361.386 90.2271V120.131C361.384 121.559 360.815 122.927 359.804 123.936C358.793 124.945 357.422 125.513 355.991 125.514H286.466C285.036 125.513 283.665 124.945 282.654 123.936C281.642 122.927 281.074 121.559 281.072 120.131Z" fill="#2F2E41"/>
<path d="M312.977 124.818C329.237 124.818 342.418 111.664 342.418 95.4384C342.418 79.2127 329.237 66.0592 312.977 66.0592C296.717 66.0592 283.535 79.2127 283.535 95.4384C283.535 111.664 296.717 124.818 312.977 124.818Z" fill="#DEC3C7"/>
<path d="M271.572 92.6195C271.581 84.2154 274.931 76.1581 280.886 70.2155C286.842 64.2728 294.916 60.9301 303.338 60.9207H309.332C317.754 60.9301 325.828 64.2729 331.783 70.2155C337.738 76.1582 341.088 84.2154 341.097 92.6195V93.2175H328.431L324.11 81.1442L323.246 93.2175H316.701L314.521 87.1268L314.084 93.2175H271.572V92.6195Z" fill="#2F2E41"/>
<path d="M310.08 128.877C309.485 128.074 309.13 127.119 309.055 126.123C308.98 125.127 309.189 124.13 309.657 123.247C316.009 111.192 324.901 88.9164 313.098 75.1789L312.251 74.193H346.52V125.533L315.39 131.014C315.075 131.07 314.755 131.098 314.435 131.098C313.585 131.098 312.748 130.897 311.991 130.511C311.234 130.125 310.58 129.566 310.082 128.879L310.08 128.877Z" fill="#2F2E41"/>
<path d="M62.4937 11.0107C59.6523 11.0106 56.8747 11.8512 54.5121 13.4264C52.1495 15.0015 50.308 17.2403 49.2206 19.8598C48.1331 22.4793 47.8484 25.3618 48.4026 28.1427C48.9568 30.9236 50.3249 33.4781 52.334 35.4831C54.343 37.4881 56.9028 38.8536 59.6895 39.4069C62.4763 39.9602 65.3648 39.6764 67.99 38.5915C70.6151 37.5066 72.8589 35.6693 74.4376 33.3118C76.0163 30.9544 76.859 28.1827 76.8592 25.3474V25.3466C76.8592 23.464 76.4876 21.5998 75.7656 19.8605C75.0437 18.1212 73.9854 16.5408 72.6514 15.2096C71.3174 13.8784 69.7337 12.8224 67.9907 12.102C66.2477 11.3815 64.3795 11.0107 62.4929 11.0107H62.4937ZM62.4937 15.3111C63.346 15.3111 64.1792 15.5633 64.8879 16.0359C65.5966 16.5084 66.149 17.18 66.4751 17.9658C66.8013 18.7516 66.8867 19.6162 66.7204 20.4504C66.5541 21.2846 66.1437 22.0509 65.541 22.6523C64.9383 23.2537 64.1704 23.6633 63.3345 23.8292C62.4985 23.9952 61.632 23.91 60.8445 23.5845C60.0571 23.2591 59.384 22.7079 58.9105 22.0007C58.437 21.2935 58.1842 20.462 58.1842 19.6115C58.1842 18.471 58.6382 17.3772 59.4464 16.5707C60.2546 15.7642 61.3507 15.3111 62.4937 15.3111ZM62.4937 36.0151C60.7911 36.0073 59.1161 35.5851 57.6141 34.7852C56.112 33.9853 54.8282 32.8318 53.8739 31.4247C53.9432 28.5575 59.6204 26.9793 62.4937 26.9793C65.3669 26.9793 71.0442 28.5575 71.1134 31.4247C70.1582 32.8307 68.8741 33.9835 67.3723 34.7833C65.8704 35.5831 64.196 36.0058 62.4937 36.0151Z" fill="#0D3FB2"/>
<path d="M62.6605 129.412C68.579 118.589 82.757 111.735 94.3549 117.913C99.5754 120.693 103.725 125.612 105.043 131.425C106.571 138.178 103.35 144.617 100.025 150.29C98.22 153.369 96.2423 156.386 94.7485 159.634C93.2018 162.997 92.0963 166.885 93.2608 170.544C94.3091 173.84 96.9376 176.238 99.816 178C102.993 179.871 106.372 181.377 109.889 182.489C117.128 184.892 124.763 185.878 132.377 185.393C136.16 185.136 139.912 184.531 143.584 183.585C147.491 182.591 151.324 181.331 155.237 180.359C161.769 178.74 169.218 177.935 175.412 181.187C181.43 184.348 184.123 190.959 184.956 197.39C186.495 209.266 181.776 221.589 173.257 229.905C169.169 233.895 164.026 237.192 158.423 238.54C153.535 239.717 147.259 239.642 143.369 235.995C139.028 231.926 140.049 225.4 143.497 221.106C147.897 215.628 155.352 214.312 162.005 214.179C169.573 214.027 177.133 215.151 184.697 214.452C188.389 214.166 192.011 213.294 195.428 211.869C198.431 210.551 201.171 208.701 203.515 206.409C208.184 201.882 211.333 195.851 212.899 189.581C214.785 182.04 214.374 174.116 212.91 166.542C212.13 162.636 211.125 158.779 209.901 154.988C209.396 153.389 206.865 154.073 207.374 155.683C211.882 169.947 214.395 186.439 205.686 199.682C202.082 205.298 196.467 209.331 189.987 210.959C182.449 212.828 174.54 211.904 166.877 211.626C159.59 211.362 151.589 211.647 145.343 215.882C140.219 219.355 136.636 225.962 138.184 232.199C139.678 238.214 145.47 241.265 151.264 241.735C157.343 242.229 163.324 240.193 168.43 237.01C179.049 230.388 186.11 218.742 187.588 206.394C188.358 199.96 187.574 193.03 184.65 187.191C183.11 184.029 180.712 181.363 177.729 179.493C174.754 177.673 171.318 176.777 167.868 176.461C160.028 175.74 152.497 178.426 145.06 180.48C141.261 181.58 137.367 182.322 133.429 182.696C129.607 183.012 125.764 182.949 121.954 182.509C118.174 182.064 114.449 181.239 110.835 180.047C107.293 178.954 103.903 177.425 100.742 175.493C97.9527 173.714 95.5408 171.165 95.4036 167.691C95.2547 163.925 97.1578 160.402 98.9678 157.227C102.544 150.954 106.961 144.819 107.893 137.476C108.71 131.053 106.12 124.722 101.647 120.141C99.4059 117.815 96.7073 115.977 93.7207 114.741C90.7341 113.504 87.5238 112.897 84.291 112.956C77.6549 113.145 71.301 116.025 66.4199 120.448C63.9991 122.642 61.9619 125.225 60.3923 128.088C59.5838 129.566 61.8459 130.887 62.6553 129.408L62.6605 129.412Z" fill="#3F3D56"/>
</g>
<defs>
<clipPath id="clip0_19_540">
<rect width="459" height="307" fill="white"/>
</clipPath>
</defs>
</svg>
