<svg width="507" height="507" viewBox="0 0 507 507" fill="none" xmlns="http://www.w3.org/2000/svg">
<path d="M69.5705 214.887C69.5705 214.887 47.0901 272.482 80.106 317.737C113.122 362.992 169.338 361.744 212.94 375.981C235.755 383.434 249.9 403.754 269.623 416.125C332.683 455.671 427.401 400.266 449.101 336.273C467.88 280.878 454.83 229.052 409.991 174.874C365.151 120.696 335.786 80.6333 255.214 72.1664C174.641 63.6995 101.755 141.798 69.5705 214.887Z" fill="#0D3FB2"/>
<path opacity="0.75" d="M69.5705 214.887C69.5705 214.887 47.0901 272.482 80.106 317.737C113.122 362.992 169.338 361.744 212.94 375.981C235.755 383.434 249.9 403.754 269.623 416.125C332.683 455.671 427.401 400.266 449.101 336.273C467.88 280.878 454.83 229.052 409.991 174.874C365.151 120.696 335.786 80.6333 255.214 72.1664C174.641 63.6995 101.755 141.798 69.5705 214.887Z" fill="white"/>
<path d="M67.9072 406.999H410.639" stroke="#263238" stroke-linecap="round" stroke-linejoin="round"/>
<path d="M105.203 262.2C105.203 262.2 105.203 258.682 100.285 253.764C95.3667 248.846 92.1726 246.027 92.1726 246.027C92.1726 246.027 89.7086 254.139 94.2818 259.036C97.6425 262.5 101.289 265.675 105.182 268.528L105.203 262.2Z" fill="#0D3FB2"/>
<path d="M98.0633 284.163C98.0633 284.163 98.0633 280.645 93.1352 275.727C88.2072 270.809 85.0232 267.99 85.0232 267.99C85.0232 267.99 82.5592 276.102 87.1324 281C90.4967 284.467 94.1464 287.645 98.043 290.501L98.0633 284.163Z" fill="#0D3FB2"/>
<path d="M104.898 268.193C104.898 268.193 105.273 264.695 110.688 260.314C116.102 255.934 119.55 253.5 119.55 253.5C119.55 253.5 121.142 261.805 116.072 266.216C112.361 269.304 108.399 272.078 104.229 274.51L104.898 268.193Z" fill="#0D3FB2"/>
<path d="M96.2688 294.131C96.2688 294.131 96.9989 290.694 102.85 286.911C108.7 283.129 112.381 281.04 112.381 281.04C112.381 281.04 113.091 289.467 107.585 293.32C103.575 296.007 99.3448 298.351 94.9404 300.327L96.2688 294.131Z" fill="#0D3FB2"/>
<path d="M97.8916 322.452C97.8916 322.452 97.8916 318.944 102.809 314.016C107.727 309.088 110.921 306.279 110.921 306.279C110.921 306.279 113.386 314.391 108.812 319.288C105.45 322.754 101.804 325.932 97.9119 328.79L97.8916 322.452Z" fill="#0D3FB2"/>
<path d="M97.7995 329.317C97.7995 329.317 98.3065 325.839 94.1289 320.262C89.9512 314.685 87.2032 311.45 87.2032 311.45C87.2032 311.45 83.6137 319.116 87.4365 324.632C90.2805 328.558 93.4485 332.238 96.9072 335.634L97.7995 329.317Z" fill="#0D3FB2"/>
<path d="M92.9531 349.83C92.9531 349.83 92.9531 346.311 97.871 341.383C102.789 336.455 105.983 333.647 105.983 333.647C105.983 333.647 108.447 341.759 103.874 346.666C100.51 350.127 96.864 353.302 92.9734 356.157L92.9531 349.83Z" fill="#0D3FB2"/>
<path d="M96.2389 368.325C96.2389 368.325 95.3161 364.928 98.8651 358.956C102.414 352.984 104.726 349.424 104.726 349.424C104.726 349.424 109.157 356.624 105.983 362.546C103.618 366.747 100.905 370.743 97.8714 374.491L96.2389 368.325Z" fill="#0D3FB2"/>
<path d="M105.649 261.298C105.405 264.96 104.954 268.606 104.3 272.218C102.353 282.277 97.496 288.767 95.5491 297.852C93.6023 306.938 99.1894 318.629 97.6887 330.3C96.188 341.972 91.6047 348.451 92.9533 356.239C94.3019 364.026 101.065 385.117 101.065 385.117" stroke="#263238" stroke-width="0.5" stroke-linecap="round" stroke-linejoin="round"/>
<path d="M104.848 270.525L110.151 266.459" stroke="#263238" stroke-width="0.5" stroke-linecap="round" stroke-linejoin="round"/>
<path d="M105.091 265.84L102.87 261.896" stroke="#263238" stroke-width="0.5" stroke-linecap="round" stroke-linejoin="round"/>
<path d="M95.8428 297.427C95.8428 297.427 100.284 294.101 104.847 290.765" stroke="#263238" stroke-width="0.5" stroke-linecap="round" stroke-linejoin="round"/>
<path d="M98.0631 290.501C95.8483 286.217 93.2015 282.17 90.1641 278.424" stroke="#263238" stroke-width="0.5" stroke-linecap="round" stroke-linejoin="round"/>
<path d="M98.0635 327.421C100.599 322.745 103.799 318.462 107.565 314.705" stroke="#263238" stroke-width="0.5" stroke-linecap="round" stroke-linejoin="round"/>
<path d="M97.2012 332.359C95.8489 329.19 94.238 326.137 92.3847 323.233C89.7889 319.41 89.4238 318.913 89.4238 318.913" stroke="#263238" stroke-width="0.5" stroke-linecap="round" stroke-linejoin="round"/>
<path d="M92.9531 356.239C94.0747 353.436 95.4104 350.724 96.9483 348.127C98.485 345.726 100.218 343.457 102.13 341.343" stroke="#263238" stroke-width="0.5" stroke-linecap="round" stroke-linejoin="round"/>
<path d="M97.8402 374.45C97.585 371.782 98.0434 369.095 99.1686 366.662C101.024 363.083 103.123 358.388 103.985 356.522" stroke="#263238" stroke-width="0.5" stroke-linecap="round" stroke-linejoin="round"/>
<path d="M73.008 309.189C73.008 309.189 72.6227 306.978 75.178 303.358C77.7332 299.738 79.4063 297.629 79.4063 297.629C79.4063 297.629 81.8298 302.436 79.4976 306.015C77.7639 308.54 75.8203 310.915 73.6874 313.113L73.008 309.189Z" fill="#0D3FB2"/>
<path d="M79.8322 322.188C79.8322 322.188 79.4469 319.978 82.0022 316.358C84.5574 312.738 86.19 310.629 86.19 310.629C86.19 310.629 88.6134 315.435 86.2812 319.015C84.5476 321.54 82.604 323.914 80.471 326.113L79.8322 322.188Z" fill="#0D3FB2"/>
<path d="M73.8087 312.91C73.8087 312.91 73.1902 310.761 69.3268 308.601C65.4635 306.441 63.0197 305.275 63.0197 305.275C63.0197 305.275 62.9285 310.659 66.5789 312.87C69.2426 314.406 72.0308 315.715 74.914 316.784L73.8087 312.91Z" fill="#0D3FB2"/>
<path d="M82.0327 328.242C82.0327 328.242 81.2012 326.214 77.1249 324.429C73.0487 322.645 70.5137 321.783 70.5137 321.783C70.5137 321.783 70.9801 327.137 74.8434 328.962C77.6522 330.22 80.5627 331.238 83.5436 332.004L82.0327 328.242Z" fill="#0D3FB2"/>
<path d="M84.0902 346.149C84.0902 346.149 83.7049 343.949 80.0342 341.394C76.3635 338.838 74.1226 337.419 74.1226 337.419C74.1226 337.419 73.4533 342.762 76.8604 345.348C79.344 347.159 81.9762 348.757 84.729 350.124L84.0902 346.149Z" fill="#0D3FB2"/>
<path d="M84.8917 350.469C84.8917 350.469 84.2021 348.339 86.2099 344.385C88.2176 340.43 89.5865 338.108 89.5865 338.108C89.5865 338.108 92.6285 342.519 90.8641 346.403C89.5308 349.162 87.9671 351.805 86.1896 354.302L84.8917 350.469Z" fill="#0D3FB2"/>
<path d="M91.0666 368.265C91.0666 368.265 91.3303 366.044 94.7982 363.286C98.266 360.528 100.477 358.976 100.477 358.976C100.477 358.976 101.491 364.269 98.1951 367.088C95.8166 369.037 93.2795 370.784 90.6104 372.31L91.0666 368.265Z" fill="#0D3FB2"/>
<path d="M90.1539 362.779C90.1539 362.779 89.7686 360.568 86.0979 358.013C82.4272 355.458 80.1863 354.038 80.1863 354.038C80.1863 354.038 79.5272 359.382 82.9241 361.978C85.4094 363.783 88.0415 365.377 90.7927 366.744L90.1539 362.779Z" fill="#0D3FB2"/>
<path d="M90.1035 374.764C90.1035 374.764 90.2962 372.533 87.4367 369.147C84.5772 365.76 82.7216 363.803 82.7216 363.803C82.7216 363.803 80.6936 368.802 83.3604 372.168C85.3093 374.546 87.4529 376.758 89.7689 378.78L90.1035 374.764Z" fill="#0D3FB2"/>
<path d="M72.582 308.672C73.132 310.942 73.809 313.18 74.61 315.374C76.922 321.458 80.694 325.007 82.8843 330.493C85.0745 335.979 82.8843 343.918 85.0542 351.077C87.2242 358.236 90.8137 361.805 90.8442 366.825C90.8746 371.844 88.8973 385.817 88.8973 385.817" stroke="#263238" stroke-width="0.5" stroke-linecap="round" stroke-linejoin="round"/>
<path d="M74.0924 314.37L70.3203 312.393" stroke="#263238" stroke-width="0.5" stroke-linecap="round" stroke-linejoin="round"/>
<path d="M73.4238 311.46L74.3871 308.743" stroke="#263238" stroke-width="0.5" stroke-linecap="round" stroke-linejoin="round"/>
<path d="M82.6609 330.26C82.6609 330.26 79.5175 328.658 76.293 327.066" stroke="#263238" stroke-width="0.5" stroke-linecap="round" stroke-linejoin="round"/>
<path d="M80.5117 326.153C81.4411 323.228 82.6641 320.405 84.1621 317.727" stroke="#263238" stroke-width="0.5" stroke-linecap="round" stroke-linejoin="round"/>
<path d="M84.5269 349.313C82.4266 346.657 79.954 344.317 77.1855 342.367" stroke="#263238" stroke-width="0.5" stroke-linecap="round" stroke-linejoin="round"/>
<path d="M85.6016 352.314C86.1002 350.175 86.7786 348.083 87.6296 346.058C88.8362 343.381 89.0187 343.016 89.0187 343.016" stroke="#263238" stroke-width="0.5" stroke-linecap="round" stroke-linejoin="round"/>
<path d="M90.6816 370.637C91.9078 369.119 93.2651 367.71 94.7376 366.429C95.6782 365.739 96.56 364.973 97.374 364.138" stroke="#263238" stroke-width="0.5" stroke-linecap="round" stroke-linejoin="round"/>
<path d="M90.8542 366.825C89.8474 365.194 88.7151 363.645 87.4674 362.191C86.2465 360.849 84.9133 359.614 83.4824 358.5" stroke="#263238" stroke-width="0.5" stroke-linecap="round" stroke-linejoin="round"/>
<path d="M89.7688 378.78C89.6394 377.076 89.0584 375.438 88.0856 374.034C86.5342 372.006 84.709 369.279 83.9688 368.214" stroke="#263238" stroke-width="0.5" stroke-linecap="round" stroke-linejoin="round"/>
<path d="M78.8486 383.383H111.063V406.999C111.063 407.806 110.743 408.58 110.172 409.15C109.602 409.721 108.828 410.041 108.021 410.041H81.9312C81.1244 410.041 80.3507 409.721 79.7802 409.15C79.2097 408.58 78.8892 407.806 78.8892 406.999V383.383H78.8486Z" fill="#263238"/>
<path d="M110.779 387.581H78.8481C78.1785 387.581 77.5363 387.315 77.0628 386.842C76.5893 386.368 76.3232 385.726 76.3232 385.056C76.3259 384.389 76.5931 383.749 77.0663 383.278C77.5395 382.806 78.1802 382.542 78.8481 382.542H110.779C111.446 382.542 112.086 382.807 112.557 383.278C113.029 383.75 113.294 384.389 113.294 385.056C113.295 385.387 113.231 385.716 113.105 386.022C112.979 386.328 112.794 386.607 112.561 386.841C112.327 387.076 112.049 387.262 111.744 387.389C111.438 387.516 111.11 387.581 110.779 387.581Z" fill="#263238"/>
<path d="M259.401 129.67H123.87C121.887 129.67 120.28 131.277 120.28 133.26V232.885C120.28 234.868 121.887 236.475 123.87 236.475H259.401C261.384 236.475 262.991 234.868 262.991 232.885V133.26C262.991 131.277 261.384 129.67 259.401 129.67Z" fill="#808080"/>
<path d="M139.566 141.108H164.278" stroke="white" stroke-linecap="round" stroke-linejoin="round"/>
<path d="M137.072 140.49C137.074 140.178 136.983 139.873 136.811 139.613C136.639 139.353 136.394 139.15 136.107 139.029C135.819 138.909 135.502 138.877 135.196 138.938C134.89 138.998 134.609 139.148 134.389 139.368C134.169 139.589 134.019 139.87 133.958 140.175C133.898 140.481 133.93 140.798 134.05 141.086C134.171 141.373 134.374 141.619 134.634 141.791C134.894 141.962 135.199 142.053 135.511 142.051C135.925 142.051 136.322 141.887 136.615 141.594C136.908 141.301 137.072 140.904 137.072 140.49Z" fill="white" stroke="white" stroke-linecap="round" stroke-linejoin="round"/>
<path d="M139.566 149.24H164.278" stroke="white" stroke-linecap="round" stroke-linejoin="round"/>
<path d="M137.072 148.612C137.074 148.3 136.983 147.995 136.811 147.735C136.639 147.475 136.394 147.272 136.107 147.152C135.819 147.031 135.502 146.999 135.196 147.06C134.89 147.12 134.609 147.27 134.389 147.49C134.169 147.711 134.019 147.992 133.958 148.298C133.898 148.603 133.93 148.92 134.05 149.208C134.171 149.495 134.374 149.741 134.634 149.913C134.894 150.085 135.199 150.175 135.511 150.173C135.925 150.173 136.322 150.009 136.615 149.716C136.908 149.423 137.072 149.026 137.072 148.612Z" fill="white" stroke="white" stroke-linecap="round" stroke-linejoin="round"/>
<path d="M139.566 157.373H164.278" stroke="white" stroke-linecap="round" stroke-linejoin="round"/>
<path d="M137.072 156.744C137.074 156.432 136.983 156.127 136.811 155.867C136.639 155.607 136.394 155.404 136.107 155.284C135.819 155.164 135.502 155.132 135.196 155.192C134.89 155.252 134.609 155.402 134.389 155.623C134.169 155.843 134.019 156.124 133.958 156.43C133.898 156.736 133.93 157.053 134.05 157.34C134.171 157.628 134.374 157.873 134.634 158.045C134.894 158.217 135.199 158.308 135.511 158.306C135.925 158.306 136.322 158.141 136.615 157.848C136.908 157.555 137.072 157.158 137.072 156.744Z" fill="white" stroke="white" stroke-linecap="round" stroke-linejoin="round"/>
<path d="M139.566 165.505H164.278" stroke="white" stroke-linecap="round" stroke-linejoin="round"/>
<path d="M137.072 164.876C137.074 164.565 136.983 164.259 136.811 163.999C136.639 163.739 136.394 163.536 136.107 163.416C135.819 163.296 135.502 163.264 135.196 163.324C134.89 163.385 134.609 163.534 134.389 163.755C134.169 163.975 134.019 164.256 133.958 164.562C133.898 164.868 133.93 165.185 134.05 165.472C134.171 165.76 134.374 166.005 134.634 166.177C134.894 166.349 135.199 166.44 135.511 166.438C135.925 166.438 136.322 166.273 136.615 165.981C136.908 165.688 137.072 165.291 137.072 164.876Z" fill="white" stroke="white" stroke-linecap="round" stroke-linejoin="round"/>
<path d="M139.566 173.627H164.278" stroke="white" stroke-linecap="round" stroke-linejoin="round"/>
<path d="M137.072 173.009C137.074 172.697 136.983 172.392 136.811 172.132C136.639 171.872 136.394 171.669 136.107 171.548C135.819 171.428 135.502 171.396 135.196 171.457C134.89 171.517 134.609 171.667 134.389 171.887C134.169 172.108 134.019 172.389 133.958 172.694C133.898 173 133.93 173.317 134.05 173.605C134.171 173.892 134.374 174.138 134.634 174.31C134.894 174.481 135.199 174.572 135.511 174.57C135.925 174.57 136.322 174.406 136.615 174.113C136.908 173.82 137.072 173.423 137.072 173.009Z" fill="white" stroke="white" stroke-linecap="round" stroke-linejoin="round"/>
<path d="M139.566 181.759H164.278" stroke="white" stroke-linecap="round" stroke-linejoin="round"/>
<path d="M137.072 181.131C137.072 180.82 136.98 180.515 136.807 180.257C136.633 179.998 136.387 179.796 136.1 179.678C135.812 179.559 135.495 179.529 135.19 179.59C134.885 179.652 134.605 179.802 134.385 180.023C134.166 180.244 134.017 180.525 133.958 180.83C133.898 181.136 133.931 181.452 134.051 181.739C134.172 182.026 134.375 182.271 134.635 182.443C134.894 182.614 135.199 182.705 135.511 182.703C135.716 182.703 135.92 182.662 136.11 182.583C136.301 182.504 136.473 182.388 136.618 182.242C136.763 182.095 136.878 181.922 136.956 181.732C137.034 181.541 137.073 181.337 137.072 181.131Z" fill="white" stroke="white" stroke-linecap="round" stroke-linejoin="round"/>
<path d="M139.566 189.892H164.278" stroke="white" stroke-linecap="round" stroke-linejoin="round"/>
<path d="M137.072 189.263C137.074 188.951 136.983 188.646 136.811 188.386C136.639 188.126 136.394 187.923 136.107 187.803C135.819 187.683 135.502 187.651 135.196 187.711C134.89 187.771 134.609 187.921 134.389 188.142C134.169 188.362 134.019 188.643 133.958 188.949C133.898 189.255 133.93 189.572 134.05 189.859C134.171 190.147 134.374 190.392 134.634 190.564C134.894 190.736 135.199 190.827 135.511 190.825C135.925 190.825 136.322 190.66 136.615 190.367C136.908 190.074 137.072 189.677 137.072 189.263Z" fill="white" stroke="white" stroke-linecap="round" stroke-linejoin="round"/>
<path d="M139.566 198.024H164.278" stroke="white" stroke-linecap="round" stroke-linejoin="round"/>
<path d="M137.072 197.395C137.074 197.084 136.983 196.778 136.811 196.518C136.639 196.258 136.394 196.055 136.107 195.935C135.819 195.815 135.502 195.783 135.196 195.843C134.89 195.904 134.609 196.053 134.389 196.274C134.169 196.494 134.019 196.775 133.958 197.081C133.898 197.387 133.93 197.704 134.05 197.991C134.171 198.279 134.374 198.524 134.634 198.696C134.894 198.868 135.199 198.959 135.511 198.957C135.925 198.957 136.322 198.792 136.615 198.5C136.908 198.207 137.072 197.809 137.072 197.395Z" fill="white" stroke="white" stroke-linecap="round" stroke-linejoin="round"/>
<path d="M139.566 206.146H164.278" stroke="white" stroke-linecap="round" stroke-linejoin="round"/>
<path d="M137.072 205.528C137.074 205.216 136.983 204.911 136.811 204.651C136.639 204.391 136.394 204.188 136.107 204.067C135.819 203.947 135.502 203.915 135.196 203.976C134.89 204.036 134.609 204.186 134.389 204.406C134.169 204.627 134.019 204.908 133.958 205.213C133.898 205.519 133.93 205.836 134.05 206.124C134.171 206.411 134.374 206.657 134.634 206.829C134.894 207 135.199 207.091 135.511 207.089C135.925 207.089 136.322 206.925 136.615 206.632C136.908 206.339 137.072 205.942 137.072 205.528Z" fill="white" stroke="white" stroke-linecap="round" stroke-linejoin="round"/>
<path d="M139.566 214.278H164.278" stroke="white" stroke-linecap="round" stroke-linejoin="round"/>
<path d="M137.072 213.65C137.072 213.339 136.98 213.034 136.807 212.776C136.633 212.517 136.387 212.315 136.1 212.197C135.812 212.078 135.495 212.048 135.19 212.109C134.885 212.171 134.605 212.321 134.385 212.542C134.166 212.763 134.017 213.044 133.958 213.349C133.898 213.655 133.931 213.971 134.051 214.258C134.172 214.545 134.375 214.79 134.635 214.962C134.894 215.133 135.199 215.223 135.511 215.221C135.716 215.221 135.92 215.181 136.11 215.102C136.301 215.023 136.473 214.907 136.618 214.761C136.763 214.614 136.878 214.441 136.956 214.25C137.034 214.06 137.073 213.856 137.072 213.65Z" fill="white" stroke="white" stroke-linecap="round" stroke-linejoin="round"/>
<path d="M139.566 222.411H164.278" stroke="white" stroke-linecap="round" stroke-linejoin="round"/>
<path d="M137.072 221.782C137.074 221.47 136.983 221.165 136.811 220.905C136.639 220.645 136.394 220.442 136.107 220.322C135.819 220.202 135.502 220.17 135.196 220.23C134.89 220.29 134.609 220.44 134.389 220.661C134.169 220.881 134.019 221.162 133.958 221.468C133.898 221.774 133.93 222.09 134.05 222.378C134.171 222.666 134.374 222.911 134.634 223.083C134.894 223.255 135.199 223.346 135.511 223.344C135.925 223.344 136.322 223.179 136.615 222.886C136.908 222.593 137.072 222.196 137.072 221.782Z" fill="white" stroke="white" stroke-linecap="round" stroke-linejoin="round"/>
<path d="M182.094 141.108H206.805" stroke="white" stroke-linecap="round" stroke-linejoin="round"/>
<path d="M179.599 140.49C179.601 140.178 179.511 139.873 179.339 139.613C179.167 139.353 178.921 139.15 178.634 139.029C178.346 138.909 178.029 138.877 177.724 138.938C177.418 138.998 177.137 139.148 176.916 139.368C176.696 139.589 176.546 139.87 176.486 140.175C176.425 140.481 176.457 140.798 176.578 141.086C176.698 141.373 176.901 141.619 177.161 141.791C177.421 141.962 177.726 142.053 178.038 142.051C178.452 142.051 178.849 141.887 179.142 141.594C179.435 141.301 179.599 140.904 179.599 140.49Z" fill="white" stroke="white" stroke-linecap="round" stroke-linejoin="round"/>
<path d="M182.094 149.24H206.805" stroke="white" stroke-linecap="round" stroke-linejoin="round"/>
<path d="M178.038 150.173C178.901 150.173 179.6 149.474 179.6 148.612C179.6 147.749 178.901 147.05 178.038 147.05C177.176 147.05 176.477 147.749 176.477 148.612C176.477 149.474 177.176 150.173 178.038 150.173Z" fill="white" stroke="white" stroke-linecap="round" stroke-linejoin="round"/>
<path d="M182.094 157.373H206.805" stroke="white" stroke-linecap="round" stroke-linejoin="round"/>
<path d="M178.038 158.306C178.901 158.306 179.6 157.606 179.6 156.744C179.6 155.882 178.901 155.182 178.038 155.182C177.176 155.182 176.477 155.882 176.477 156.744C176.477 157.606 177.176 158.306 178.038 158.306Z" fill="white" stroke="white" stroke-linecap="round" stroke-linejoin="round"/>
<path d="M182.094 165.505H206.805" stroke="white" stroke-linecap="round" stroke-linejoin="round"/>
<path d="M179.599 164.876C179.601 164.565 179.511 164.259 179.339 163.999C179.167 163.739 178.921 163.536 178.634 163.416C178.346 163.296 178.029 163.264 177.724 163.324C177.418 163.385 177.137 163.534 176.916 163.755C176.696 163.975 176.546 164.256 176.486 164.562C176.425 164.868 176.457 165.185 176.578 165.472C176.698 165.76 176.901 166.005 177.161 166.177C177.421 166.349 177.726 166.44 178.038 166.438C178.452 166.438 178.849 166.273 179.142 165.981C179.435 165.688 179.599 165.291 179.599 164.876Z" fill="white" stroke="white" stroke-linecap="round" stroke-linejoin="round"/>
<path d="M182.094 173.627H206.805" stroke="white" stroke-linecap="round" stroke-linejoin="round"/>
<path d="M178.038 174.57C178.901 174.57 179.6 173.871 179.6 173.009C179.6 172.146 178.901 171.447 178.038 171.447C177.176 171.447 176.477 172.146 176.477 173.009C176.477 173.871 177.176 174.57 178.038 174.57Z" fill="white" stroke="white" stroke-linecap="round" stroke-linejoin="round"/>
<path d="M182.094 181.759H206.805" stroke="white" stroke-linecap="round" stroke-linejoin="round"/>
<path d="M178.038 182.692C178.901 182.692 179.6 181.993 179.6 181.131C179.6 180.268 178.901 179.569 178.038 179.569C177.176 179.569 176.477 180.268 176.477 181.131C176.477 181.993 177.176 182.692 178.038 182.692Z" fill="white" stroke="white" stroke-linecap="round" stroke-linejoin="round"/>
<path d="M182.094 189.892H206.805" stroke="white" stroke-linecap="round" stroke-linejoin="round"/>
<path d="M179.599 189.263C179.601 188.951 179.511 188.646 179.339 188.386C179.167 188.126 178.921 187.923 178.634 187.803C178.346 187.683 178.029 187.651 177.724 187.711C177.418 187.771 177.137 187.921 176.916 188.142C176.696 188.362 176.546 188.643 176.486 188.949C176.425 189.255 176.457 189.572 176.578 189.859C176.698 190.147 176.901 190.392 177.161 190.564C177.421 190.736 177.726 190.827 178.038 190.825C178.452 190.825 178.849 190.66 179.142 190.367C179.435 190.074 179.599 189.677 179.599 189.263Z" fill="white" stroke="white" stroke-linecap="round" stroke-linejoin="round"/>
<path d="M182.094 198.024H206.805" stroke="white" stroke-linecap="round" stroke-linejoin="round"/>
<path d="M178.038 198.957C178.901 198.957 179.6 198.258 179.6 197.395C179.6 196.533 178.901 195.834 178.038 195.834C177.176 195.834 176.477 196.533 176.477 197.395C176.477 198.258 177.176 198.957 178.038 198.957Z" fill="white" stroke="white" stroke-linecap="round" stroke-linejoin="round"/>
<path d="M182.094 206.146H206.805" stroke="white" stroke-linecap="round" stroke-linejoin="round"/>
<path d="M179.599 205.528C179.601 205.216 179.511 204.911 179.339 204.651C179.167 204.391 178.921 204.188 178.634 204.067C178.346 203.947 178.029 203.915 177.724 203.976C177.418 204.036 177.137 204.186 176.916 204.406C176.696 204.627 176.546 204.908 176.486 205.213C176.425 205.519 176.457 205.836 176.578 206.124C176.698 206.411 176.901 206.657 177.161 206.829C177.421 207 177.726 207.091 178.038 207.089C178.452 207.089 178.849 206.925 179.142 206.632C179.435 206.339 179.599 205.942 179.599 205.528Z" fill="white" stroke="white" stroke-linecap="round" stroke-linejoin="round"/>
<path d="M182.094 214.278H206.805" stroke="white" stroke-linecap="round" stroke-linejoin="round"/>
<path d="M178.038 215.211C178.901 215.211 179.6 214.512 179.6 213.65C179.6 212.787 178.901 212.088 178.038 212.088C177.176 212.088 176.477 212.787 176.477 213.65C176.477 214.512 177.176 215.211 178.038 215.211Z" fill="white" stroke="white" stroke-linecap="round" stroke-linejoin="round"/>
<path d="M182.094 222.411H206.805" stroke="white" stroke-linecap="round" stroke-linejoin="round"/>
<path d="M178.038 223.344C178.901 223.344 179.6 222.644 179.6 221.782C179.6 220.92 178.901 220.22 178.038 220.22C177.176 220.22 176.477 220.92 176.477 221.782C176.477 222.644 177.176 223.344 178.038 223.344Z" fill="white" stroke="white" stroke-linecap="round" stroke-linejoin="round"/>
<path d="M224.621 141.108H249.322" stroke="white" stroke-linecap="round" stroke-linejoin="round"/>
<path d="M222.127 140.49C222.129 140.178 222.038 139.874 221.867 139.614C221.695 139.354 221.451 139.151 221.164 139.03C220.877 138.91 220.56 138.877 220.255 138.937C219.949 138.996 219.668 139.145 219.447 139.365C219.227 139.584 219.076 139.864 219.014 140.169C218.953 140.474 218.983 140.791 219.102 141.079C219.221 141.366 219.422 141.612 219.681 141.786C219.94 141.959 220.244 142.051 220.555 142.051C220.761 142.053 220.965 142.013 221.156 141.935C221.346 141.857 221.52 141.743 221.666 141.597C221.812 141.452 221.928 141.28 222.007 141.09C222.086 140.899 222.127 140.696 222.127 140.49Z" fill="white" stroke="white" stroke-linecap="round" stroke-linejoin="round"/>
<path d="M224.621 149.24H249.322" stroke="white" stroke-linecap="round" stroke-linejoin="round"/>
<path d="M220.555 150.173C221.417 150.173 222.116 149.474 222.116 148.612C222.116 147.749 221.417 147.05 220.555 147.05C219.692 147.05 218.993 147.749 218.993 148.612C218.993 149.474 219.692 150.173 220.555 150.173Z" fill="white" stroke="white" stroke-linecap="round" stroke-linejoin="round"/>
<path d="M224.621 157.373H249.322" stroke="white" stroke-linecap="round" stroke-linejoin="round"/>
<path d="M220.555 158.306C221.417 158.306 222.116 157.606 222.116 156.744C222.116 155.882 221.417 155.182 220.555 155.182C219.692 155.182 218.993 155.882 218.993 156.744C218.993 157.606 219.692 158.306 220.555 158.306Z" fill="white" stroke="white" stroke-linecap="round" stroke-linejoin="round"/>
<path d="M224.621 165.505H249.322" stroke="white" stroke-linecap="round" stroke-linejoin="round"/>
<path d="M222.127 164.876C222.129 164.565 222.038 164.26 221.867 164C221.695 163.741 221.451 163.538 221.164 163.417C220.877 163.297 220.56 163.264 220.255 163.324C219.949 163.383 219.668 163.532 219.447 163.751C219.227 163.971 219.076 164.251 219.014 164.556C218.953 164.861 218.983 165.178 219.102 165.465C219.221 165.753 219.422 165.999 219.681 166.172C219.94 166.346 220.244 166.438 220.555 166.438C220.761 166.439 220.965 166.4 221.156 166.322C221.346 166.244 221.52 166.129 221.666 165.984C221.812 165.839 221.928 165.666 222.007 165.476C222.086 165.286 222.127 165.082 222.127 164.876Z" fill="white" stroke="white" stroke-linecap="round" stroke-linejoin="round"/>
<path d="M224.621 173.627H249.322" stroke="white" stroke-linecap="round" stroke-linejoin="round"/>
<path d="M220.555 174.57C221.417 174.57 222.116 173.871 222.116 173.009C222.116 172.146 221.417 171.447 220.555 171.447C219.692 171.447 218.993 172.146 218.993 173.009C218.993 173.871 219.692 174.57 220.555 174.57Z" fill="white" stroke="white" stroke-linecap="round" stroke-linejoin="round"/>
<path d="M224.621 181.759H249.322" stroke="white" stroke-linecap="round" stroke-linejoin="round"/>
<path d="M220.555 182.692C221.417 182.692 222.116 181.993 222.116 181.131C222.116 180.268 221.417 179.569 220.555 179.569C219.692 179.569 218.993 180.268 218.993 181.131C218.993 181.993 219.692 182.692 220.555 182.692Z" fill="white" stroke="white" stroke-linecap="round" stroke-linejoin="round"/>
<path d="M224.621 189.892H249.322" stroke="white" stroke-linecap="round" stroke-linejoin="round"/>
<path d="M222.127 189.263C222.129 188.952 222.038 188.647 221.867 188.387C221.695 188.127 221.451 187.924 221.164 187.804C220.877 187.683 220.56 187.651 220.255 187.71C219.949 187.77 219.668 187.919 219.447 188.138C219.227 188.357 219.076 188.637 219.014 188.943C218.953 189.248 218.983 189.564 219.102 189.852C219.221 190.14 219.422 190.386 219.681 190.559C219.94 190.732 220.244 190.825 220.555 190.825C220.761 190.826 220.965 190.787 221.156 190.709C221.346 190.631 221.52 190.516 221.666 190.371C221.812 190.226 221.928 190.053 222.007 189.863C222.086 189.673 222.127 189.469 222.127 189.263Z" fill="white" stroke="white" stroke-linecap="round" stroke-linejoin="round"/>
<path d="M224.621 198.024H249.322" stroke="white" stroke-linecap="round" stroke-linejoin="round"/>
<path d="M220.555 198.957C221.417 198.957 222.116 198.258 222.116 197.395C222.116 196.533 221.417 195.834 220.555 195.834C219.692 195.834 218.993 196.533 218.993 197.395C218.993 198.258 219.692 198.957 220.555 198.957Z" fill="white" stroke="white" stroke-linecap="round" stroke-linejoin="round"/>
<path d="M224.621 206.146H249.322" stroke="white" stroke-linecap="round" stroke-linejoin="round"/>
<path d="M222.127 205.528C222.129 205.216 222.038 204.912 221.867 204.652C221.695 204.392 221.451 204.189 221.164 204.068C220.877 203.948 220.56 203.915 220.255 203.975C219.949 204.034 219.668 204.183 219.447 204.403C219.227 204.622 219.076 204.902 219.014 205.207C218.953 205.512 218.983 205.829 219.102 206.117C219.221 206.404 219.422 206.65 219.681 206.824C219.94 206.997 220.244 207.089 220.555 207.089C220.761 207.091 220.965 207.051 221.156 206.973C221.346 206.895 221.52 206.781 221.666 206.635C221.812 206.49 221.928 206.318 222.007 206.128C222.086 205.937 222.127 205.734 222.127 205.528Z" fill="white" stroke="white" stroke-linecap="round" stroke-linejoin="round"/>
<path d="M224.621 214.278H249.322" stroke="white" stroke-linecap="round" stroke-linejoin="round"/>
<path d="M220.555 215.211C221.417 215.211 222.116 214.512 222.116 213.65C222.116 212.787 221.417 212.088 220.555 212.088C219.692 212.088 218.993 212.787 218.993 213.65C218.993 214.512 219.692 215.211 220.555 215.211Z" fill="white" stroke="white" stroke-linecap="round" stroke-linejoin="round"/>
<path d="M224.621 222.411H249.322" stroke="white" stroke-linecap="round" stroke-linejoin="round"/>
<path d="M220.555 223.344C221.417 223.344 222.116 222.644 222.116 221.782C222.116 220.92 221.417 220.22 220.555 220.22C219.692 220.22 218.993 220.92 218.993 221.782C218.993 222.644 219.692 223.344 220.555 223.344Z" fill="white" stroke="white" stroke-linecap="round" stroke-linejoin="round"/>
<path d="M152.383 265.871C151.532 271.722 148.915 291.221 150.507 300.347C152.404 311.207 162.321 402.436 162.321 402.436H173.657L177.541 313.326L178.382 328.252L180.785 402.467H192.122L205.172 269.045L202.13 269.105C175.35 272.766 158.924 268.315 152.383 265.871Z" fill="white" stroke="#263238" stroke-linecap="round" stroke-linejoin="round"/>
<path d="M204.331 201.786C204.331 201.786 210.111 204.96 211.023 207.971C212.199 211.825 214.542 233.068 214.876 237.925C215.211 242.782 216.904 243.441 215.373 244.952C213.842 246.463 210.192 247.294 207.18 246.98C205.945 246.874 204.717 246.705 203.499 246.473L202.485 205.984L202.648 200.914L204.331 201.786Z" fill="white" stroke="#263238" stroke-linecap="round" stroke-linejoin="round"/>
<path d="M217.138 246.95C216.193 253.22 215.628 259.542 215.444 265.881C215.33 275.55 214.514 285.199 213.001 294.75C212.23 300.073 213.437 308.428 210.709 313.204C209.36 315.567 208.346 318.274 206.998 318.274C205.649 318.274 205.639 318.274 204.97 316.581C204.301 314.888 204.625 311.846 204.625 310.162C204.625 309.139 204.741 308.118 204.97 307.12C204.97 307.12 203.956 314.218 202.942 312.19C201.928 310.162 201.248 309.483 202.262 306.106C203.276 302.73 206.318 294.608 206.318 294.608L203.276 253.713L217.138 246.95Z" fill="white" stroke="#263238" stroke-linecap="round" stroke-linejoin="round"/>
<path d="M205.172 245.439C207.589 245.709 210.036 245.481 212.361 244.769C213.683 244.371 214.971 243.87 216.214 243.269C216.214 243.269 217.38 242.762 217.38 245.297C217.38 247.832 218.394 251.817 218.222 253.328C218.05 254.838 216.549 256.005 212.199 256.005C209.882 256.062 207.569 255.778 205.334 255.163L205.172 245.439Z" fill="white" stroke="#263238" stroke-linecap="round" stroke-linejoin="round"/>
<path d="M153.641 245.104L152.465 265.851C152.465 265.851 152.13 266.52 158.326 268.193C160.814 268.717 163.347 268.999 165.89 269.035H182.327C187.691 268.872 192.599 268.609 195.509 268.365C203.368 267.696 207.555 263.681 207.555 263.681C207.555 263.681 206.217 223.526 206.217 215.009C206.217 206.491 204.371 201.827 204.371 201.827C204.371 201.827 197.679 197.304 194.171 194.8C190.662 192.295 182.459 189.608 178.606 190.45C176.394 190.918 174.216 191.531 172.086 192.285C172.086 192.285 155.142 201.107 150.122 203.814C145.103 206.521 145.61 208.164 144.941 211.51C144.272 214.856 139.587 240.916 139.587 240.916C139.587 240.916 144.657 244.759 147.952 244.972C151.248 245.185 153.641 245.104 153.641 245.104Z" fill="white" stroke="#263238" stroke-linecap="round" stroke-linejoin="round"/>
<path d="M207.87 269.034H207.991C208.06 267.239 207.917 265.442 207.566 263.681C207.566 263.681 206.227 223.526 206.227 215.009C206.227 206.491 204.382 201.827 204.382 201.827L201.532 199.89C202.354 207.049 202.546 215.211 202.546 215.211C202.546 215.211 193.005 216.55 183.473 216.884C173.941 217.219 168.263 217.047 168.263 217.047C168.263 217.047 167.928 206.846 165.758 201.492C164.876 199.312 164.237 197.75 163.801 196.655L160.577 198.349C160.719 199.18 164.633 221.671 164.633 226.741C164.633 231.811 164.298 251.502 164.298 255.69C164.136 259.589 163.75 263.476 163.142 267.331L162.696 267.27L152.759 264.228H152.688L152.069 267.118L160.08 271.123L156.774 332.065C156.774 332.065 168.587 334.904 186.069 333.961C203.55 333.018 211.926 331.071 211.926 331.071L207.87 269.034Z" fill="#263238" stroke="#263238" stroke-linecap="round" stroke-linejoin="round"/>
<path d="M175.057 186.049C175.057 186.049 172.207 186.211 171.71 187.549C171.214 188.888 168.364 193.907 168.364 193.907C168.949 196.51 169.673 199.079 170.534 201.603C171.39 204.011 172.406 206.359 173.576 208.631C173.576 208.631 179.772 202.273 181.779 201.603C183.787 200.934 193.491 207.292 193.491 207.292C194.257 204.003 194.425 200.602 193.988 197.253C193.319 191.23 192.822 189.73 189.932 188.553C187.042 187.377 177.734 184.872 175.057 186.049Z" fill="white" stroke="#263238" stroke-linecap="round" stroke-linejoin="round"/>
<path d="M173.211 177.683C173.211 177.683 173.546 186.211 174.053 189.73C174.56 193.248 179.741 203.611 183.087 203.277C186.433 202.942 190.114 195.246 190.611 192.234C191.108 189.223 191.95 182.033 191.95 182.033C191.95 182.033 188.441 183.869 182.58 181.019C176.719 178.17 174.215 175.341 173.211 177.683Z" fill="white" stroke="#263238" stroke-linecap="round" stroke-linejoin="round"/>
<path d="M197.811 155.264C197.811 155.264 195.965 162.118 196.635 166.418C197.304 170.717 199.484 174.621 196.635 179.6C193.785 184.578 191.118 186.961 185.927 186.961C180.735 186.961 176.06 183.919 172.745 178.596C169.429 173.272 169.226 168.892 169.226 164.035C169.226 159.178 167.198 153.834 168.891 150.65C170.585 147.466 176.588 144.799 183.28 147.304C189.973 149.808 197.811 155.264 197.811 155.264Z" fill="white" stroke="#263238" stroke-linecap="round" stroke-linejoin="round"/>
<path d="M183.584 176.507C185.167 177.344 186.855 177.964 188.603 178.352C190.783 178.687 192.791 176.324 192.791 176.324C191.577 175.557 190.171 175.149 188.735 175.148C186.95 175.287 185.205 175.748 183.584 176.507Z" fill="white" stroke="#263238" stroke-linecap="round" stroke-linejoin="round"/>
<path d="M189.78 163.254C189.78 163.254 189.273 166.093 190.115 167.766C190.956 169.439 192.792 171.113 190.946 171.954C189.101 172.796 186.099 172.786 185.765 171.954" stroke="#263238" stroke-linecap="round" stroke-linejoin="round"/>
<path d="M187.438 172.826C185.713 173.523 183.918 174.029 182.084 174.337C179.569 174.672 179.235 175.351 181.415 175.838C183.595 176.324 189.111 176.01 189.111 176.01C189.111 176.01 192.619 177.024 194.13 176.172C195.641 175.321 194.8 175.158 193.289 174.499C191.778 173.84 190.115 172.492 187.438 172.826Z" fill="#263238" stroke="#263238" stroke-linecap="round" stroke-linejoin="round"/>
<path d="M182.753 167.645C183.307 167.645 183.757 166.818 183.757 165.799C183.757 164.78 183.307 163.954 182.753 163.954C182.198 163.954 181.749 164.78 181.749 165.799C181.749 166.818 182.198 167.645 182.753 167.645Z" fill="#263238"/>
<path d="M192.122 167.3C192.676 167.3 193.126 166.478 193.126 165.464C193.126 164.451 192.676 163.629 192.122 163.629C191.568 163.629 191.118 164.451 191.118 165.464C191.118 166.478 191.568 167.3 192.122 167.3Z" fill="#263238"/>
<path d="M181.414 164.126L183.919 163.791" stroke="#263238" stroke-linecap="round" stroke-linejoin="round"/>
<path d="M191.118 163.964H193.461" stroke="#263238" stroke-linecap="round" stroke-linejoin="round"/>
<path d="M186.261 161.114C186.261 161.114 185.095 160.1 182.083 160.445C179.072 160.79 179.234 161.621 179.234 161.621" stroke="#263238" stroke-linecap="round" stroke-linejoin="round"/>
<path d="M190.632 161.449C190.632 161.449 191.97 159.421 195.702 160.283" stroke="#263238" stroke-linecap="round" stroke-linejoin="round"/>
<path d="M171.204 167.807C172.68 166.701 173.884 165.272 174.722 163.629C175.736 161.287 176.892 160.111 175.888 158.103C174.885 156.095 172.846 154.929 173.384 153.418C173.921 151.907 184.426 151.745 190.277 154.087C196.128 156.43 202.993 156.764 203.459 154.422C203.926 152.08 199.109 150.579 199.109 150.579C199.109 150.579 204.463 149.91 200.275 145.722C196.087 141.534 192.244 140.54 181.709 140.54C171.173 140.54 167.655 142.568 167.148 144.596C166.641 146.624 166.316 147.77 166.316 147.77C165.644 147.968 165.056 148.381 164.643 148.946C164.136 149.778 164.471 152.627 165.475 154.463C166.479 156.298 168.324 161.155 167.817 163.832C167.31 166.509 166.803 166.509 167.32 167.016C167.837 167.523 168.699 169.815 171.204 167.807Z" fill="#263238" stroke="#263238" stroke-linecap="round" stroke-linejoin="round"/>
<path d="M173.049 169.338C173.049 169.338 171.021 163.477 167.858 164.988C164.694 166.499 165.688 171.346 167.026 172.846C168.365 174.347 171.711 176.902 173.384 175.361" fill="white"/>
<path d="M173.049 169.338C173.049 169.338 171.021 163.477 167.858 164.988C164.694 166.499 165.688 171.346 167.026 172.846C168.365 174.347 171.711 176.902 173.384 175.361" stroke="#263238" stroke-linecap="round" stroke-linejoin="round"/>
<path d="M139.231 246.95C140.181 253.22 140.753 259.542 140.945 265.881C141.059 275.55 141.876 285.199 143.389 294.75C144.17 300.073 142.953 308.428 145.68 313.204C147.029 315.567 148.043 318.274 149.402 318.274C150.761 318.274 150.75 318.274 151.43 316.581C152.109 314.888 151.764 311.846 151.764 310.162C151.764 309.139 151.652 308.119 151.43 307.12C151.43 307.12 152.444 314.218 153.458 312.19C154.472 310.162 155.141 309.483 154.127 306.106C153.113 302.73 150.071 294.608 150.071 294.608L153.113 253.713L139.231 246.95Z" fill="white" stroke="#263238" stroke-linecap="round" stroke-linejoin="round"/>
<path d="M153.641 245.104C151.165 244.61 148.79 243.706 146.614 242.427C142.264 240.085 139.587 238.371 139.587 238.371C139.171 238.559 138.822 238.867 138.583 239.256C138.345 239.644 138.228 240.096 138.248 240.551C138.248 242.224 137.579 247.406 137.579 249.586C137.579 251.766 139.252 252.425 143.43 253.936C147.608 255.447 151.795 255.771 152.637 254.95C153.479 254.129 153.641 245.104 153.641 245.104Z" fill="white" stroke="#263238" stroke-linecap="round" stroke-linejoin="round"/>
<path d="M153.641 245.104L155.141 226.203" stroke="#263238" stroke-linecap="round" stroke-linejoin="round"/>
<path d="M174.256 416.43L173.657 402.457H162.321L147.182 414.878C146.859 415.143 146.619 415.495 146.492 415.892C146.364 416.29 146.354 416.716 146.462 417.119C146.575 417.567 146.838 417.963 147.206 418.242C147.575 418.52 148.028 418.664 148.49 418.65L172.36 418.376C172.612 418.375 172.863 418.323 173.095 418.225C173.328 418.126 173.539 417.981 173.715 417.8C173.892 417.619 174.031 417.404 174.123 417.169C174.216 416.934 174.261 416.682 174.256 416.43Z" fill="white" stroke="#263238" stroke-linecap="round" stroke-linejoin="round"/>
<path d="M180.187 416.43L180.785 402.457H192.122L207.261 414.878C207.584 415.143 207.823 415.495 207.951 415.892C208.079 416.29 208.089 416.716 207.981 417.119C207.868 417.567 207.605 417.963 207.236 418.242C206.867 418.52 206.415 418.664 205.953 418.65L182.073 418.376C181.821 418.374 181.572 418.321 181.34 418.222C181.109 418.122 180.899 417.978 180.724 417.797C180.548 417.616 180.41 417.401 180.318 417.167C180.226 416.932 180.182 416.682 180.187 416.43Z" fill="white" stroke="#263238" stroke-linecap="round" stroke-linejoin="round"/>
<path d="M252.577 274.794C252.577 274.794 242.285 268.152 238.959 266.996C238.312 266.747 237.624 266.624 236.931 266.631L236.809 266.489H220.859L219.845 277.126H253.053C252.992 275.21 252.577 274.794 252.577 274.794Z" fill="white" stroke="#263238" stroke-linecap="round" stroke-linejoin="round"/>
<path d="M236.789 277.096C236.719 275.21 236.303 274.764 236.303 274.764C236.303 274.764 226.001 268.122 222.685 266.966C219.369 265.81 218.527 267.787 218.527 267.787V277.096H236.789Z" fill="#263238" stroke="#263238" stroke-linecap="round" stroke-linejoin="round"/>
<path d="M227.836 267.625L232.815 270.616H243.441L237.631 267.787L227.836 267.625Z" fill="white" stroke="#263238" stroke-linecap="round" stroke-linejoin="round"/>
<path d="M118.272 422.544H344.06V371.002L306.876 278.384H118.272V422.544Z" fill="#0D3FB2"/>
<path opacity="0.7" d="M177.714 378.455L277.664 278.384H256.928L158.245 378.455H177.714Z" fill="white"/>
<path opacity="0.7" d="M263.265 378.455L363.215 278.384H342.478L243.796 378.455H263.265Z" fill="white"/>
<path opacity="0.7" d="M290.724 378.455L390.674 278.384H369.937L271.255 378.455H290.724Z" fill="white"/>
<path opacity="0.7" d="M110.648 378.455L210.598 278.384H189.861L91.1787 378.455H110.648Z" fill="white"/>
<path d="M118.272 422.544H344.06V371.002L306.876 278.384H118.272V422.544Z" stroke="#263238" stroke-linecap="round" stroke-linejoin="round"/>
<path d="M224.165 278.758L219.251 280.005L245.112 381.906L250.026 380.659L224.165 278.758Z" fill="#263238"/>
<path d="M312.717 275.686H118.272V282.105H312.717V275.686Z" fill="white" stroke="#263238" stroke-linecap="round" stroke-linejoin="round"/>
<path d="M208.518 295.622L154.776 346.829" stroke="#263238" stroke-linecap="round" stroke-linejoin="round"/>
<path d="M154.057 357.415L149.2 362.039" stroke="#263238" stroke-linecap="round" stroke-linejoin="round"/>
<path d="M202.941 310.832L159.248 352.477" stroke="#263238" stroke-linecap="round" stroke-linejoin="round"/>
<path d="M262.758 342.012L257.698 346.829" stroke="#263238" stroke-linecap="round" stroke-linejoin="round"/>
<path d="M311.44 295.622L268.689 336.364" stroke="#263238" stroke-linecap="round" stroke-linejoin="round"/>
<path d="M305.863 310.832L252.121 362.039" stroke="#263238" stroke-linecap="round" stroke-linejoin="round"/>
<path d="M344.06 371.002H118.272V422.544H344.06V371.002Z" fill="white" stroke="#263238" stroke-linecap="round" stroke-linejoin="round"/>
<path d="M123.637 256.542H130.664C131.148 256.542 131.612 256.734 131.954 257.077C132.297 257.419 132.489 257.883 132.489 258.367V275.544H121.812V258.387C121.809 258.146 121.854 257.907 121.945 257.683C122.035 257.459 122.169 257.255 122.339 257.084C122.509 256.912 122.711 256.776 122.934 256.683C123.156 256.59 123.395 256.542 123.637 256.542Z" fill="white" stroke="#263238" stroke-linecap="round" stroke-linejoin="round"/>
<path d="M128.97 250.833H125.33V256.562H128.97V250.833Z" fill="white" stroke="#263238" stroke-linecap="round" stroke-linejoin="round"/>
<path d="M135.612 256.542H142.639C143.124 256.542 143.588 256.734 143.93 257.077C144.272 257.419 144.465 257.883 144.465 258.367V275.544H133.787V258.387C133.785 258.146 133.83 257.907 133.92 257.683C134.011 257.459 134.145 257.255 134.315 257.084C134.484 256.912 134.686 256.776 134.909 256.683C135.132 256.59 135.371 256.542 135.612 256.542Z" fill="white" stroke="#263238" stroke-linecap="round" stroke-linejoin="round"/>
<path d="M140.936 250.833H137.296V256.562H140.936V250.833Z" fill="white" stroke="#263238" stroke-linecap="round" stroke-linejoin="round"/>
<path d="M335.483 442.216C359.166 442.216 378.365 437.88 378.365 432.532C378.365 427.184 359.166 422.848 335.483 422.848C311.8 422.848 292.601 427.184 292.601 432.532C292.601 437.88 311.8 442.216 335.483 442.216Z" fill="#0D3FB2"/>
<path opacity="0.5" d="M335.483 442.216C359.166 442.216 378.365 437.88 378.365 432.532C378.365 427.184 359.166 422.848 335.483 422.848C311.8 422.848 292.601 427.184 292.601 432.532C292.601 437.88 311.8 442.216 335.483 442.216Z" fill="white"/>
<path d="M290.653 256.207C286.431 257.948 282 259.131 277.471 259.726C272.624 260.478 267.694 260.539 262.829 259.909C260.263 258.942 257.606 258.232 254.9 257.789C250.489 257.079 245.774 259.199 245.551 261.318C245.328 263.437 249.434 266.783 254.372 268.416C259.311 270.048 261.247 268.598 276.589 270.18C291.931 271.762 297.741 271.59 300.388 269.298C301.02 268.726 301.522 268.025 301.861 267.243C302.199 266.46 302.366 265.614 302.35 264.762C302.333 263.909 302.134 263.07 301.766 262.301C301.398 261.532 300.869 260.851 300.215 260.304C297.346 257.962 290.653 256.207 290.653 256.207Z" fill="white" stroke="#263238" stroke-linecap="round" stroke-linejoin="round"/>
<path d="M325.383 203.662C325.383 203.662 321.682 205.071 311.988 207.546C302.294 210.02 301.057 209.482 299.11 214.066C297.164 218.649 296.646 230.817 296.291 232.226C295.937 233.636 292.418 248.268 292.418 248.268C292.418 248.268 291.353 246.503 290.299 248.795C289.244 251.087 286.77 254.443 287.825 255.325C288.879 256.207 292.418 259.381 294.527 261.135C295.861 262.228 297.347 263.119 298.938 263.782L294.71 292.519L301.585 296.402C301.585 296.402 303.349 276.477 306.168 262.018C308.987 247.558 311.106 232.399 313.398 228.17C315.689 223.942 317.099 221.072 317.099 221.072L326.438 204.848C326.438 204.848 326.975 203.307 325.383 203.662Z" fill="#0D3FB2" stroke="#263238" stroke-linecap="round" stroke-linejoin="round"/>
<path d="M298.938 263.782C299.855 257.592 300.383 251.35 300.519 245.094C300.601 238.203 301.732 231.364 303.876 224.814" stroke="#263238" stroke-linecap="round" stroke-linejoin="round"/>
<path d="M340.015 155.71C340.015 155.71 342.489 150.772 349.891 151.116C357.293 151.461 365.932 168.354 366.287 178.626C366.642 188.898 361.349 190.967 363.245 195.55C365.142 200.133 373.477 202.07 373.477 211.946C373.477 221.823 370.83 231.699 361.136 233.808C351.442 235.917 345.926 232.581 340.501 220.626C335.076 208.671 336.983 201.938 338.037 192.599C339.092 183.26 337.865 173.729 337.155 168.618C336.445 163.508 337.196 159.198 340.015 155.71Z" fill="#263238" stroke="#263238" stroke-linecap="round" stroke-linejoin="round"/>
<path d="M312.688 212.301C312.681 214.545 312.505 216.786 312.16 219.004C311.633 221.823 311.806 220.94 313.174 220.413C314.543 219.886 317.585 215.647 317.585 215.647C317.585 215.647 315.355 211.926 312.688 212.301Z" fill="white" stroke="#263238" stroke-linecap="round" stroke-linejoin="round"/>
<path d="M326.792 199.434C326.792 199.434 321.509 204.372 318.508 207.363C316.707 209.166 314.76 210.818 312.688 212.301L317.098 221.113C317.098 221.113 321.154 213.538 322.381 210.537C323.608 207.535 326.792 199.434 326.792 199.434Z" fill="white" stroke="#263238" stroke-linecap="round" stroke-linejoin="round"/>
<path d="M310.862 421.925C310.862 421.925 304.91 425.89 299.708 427.259C294.507 428.628 293.158 429.399 293.766 431.072C294.375 432.745 297.123 433.82 301.087 434.114C305.052 434.408 311.298 433.049 314.036 433.049C316.774 433.049 321.509 434.57 324.703 433.505C327.898 432.441 328.029 430.92 327.816 427.178C327.819 425.552 327.594 423.935 327.147 422.372L310.862 421.925Z" fill="white" stroke="#263238" stroke-linecap="round" stroke-linejoin="round"/>
<path d="M302.74 272.766C302.74 272.766 301.219 283.413 299.698 295.581C298.177 307.749 299.445 326.255 301.473 334.367C303.501 342.479 305.782 347.295 306.289 354.393C306.796 361.491 311.359 379.743 312.12 391.658C312.65 399.172 312.565 406.718 311.866 414.219C311.82 415.519 311.563 416.803 311.106 418.022C311.106 418.022 309.331 417.768 309.331 418.782C309.331 419.796 309.078 423.092 309.078 423.092C311.655 423.991 314.278 424.753 316.936 425.373C320.485 426.134 327.837 427.148 327.837 427.148C328.805 422.739 329.146 418.216 328.851 413.712C328.344 406.361 330.625 394.7 330.625 384.053C330.625 373.406 330.625 366.308 330.879 359.463C331.132 352.619 330.625 317.636 330.879 308.003C331.132 298.37 337.47 287.469 337.47 280.625C337.47 273.78 335.949 272.513 333.414 271.499C330.879 270.485 302.74 272.766 302.74 272.766Z" fill="#263238" stroke="#263238" stroke-linecap="round" stroke-linejoin="round"/>
<path d="M329.297 424.217C329.297 424.217 325.342 426.803 320.617 429.703C315.892 432.603 312.384 433.82 315.892 436.405C319.4 438.991 330.828 439.305 335.249 438.089C339.67 436.872 346.789 434.276 348.35 433.992C349.912 433.708 350.185 432.461 349.719 430.179C349.253 427.898 337.551 425.758 334.022 424.389C330.494 423.021 329.297 424.217 329.297 424.217Z" fill="white" stroke="#263238" stroke-linecap="round" stroke-linejoin="round"/>
<path d="M312.627 292.58L320.992 301.706C320.992 301.706 322.006 327.056 322.006 339.731C322.081 348.996 322.929 358.238 324.541 367.362C325.048 369.897 330.625 392.459 330.625 399.05C330.625 405.641 331.639 415.527 331.639 417.048C331.639 418.569 329.358 418.569 329.104 421.104C329.012 422.399 328.757 423.676 328.344 424.907C331.445 425.931 334.491 427.116 337.47 428.456C340.512 429.977 349.638 432.005 350.398 431.498C351.159 430.991 351.666 426.174 351.412 423.132C351.159 420.09 350.652 414.767 350.652 413.499C350.652 412.232 352.173 390.684 352.173 379.784C352.173 368.883 347.356 354.18 346.089 349.871C345.16 346.66 344.732 343.325 344.821 339.984C344.821 337.703 350.905 309.564 350.652 295.368C350.398 281.172 347.103 274.835 347.103 274.835C347.103 274.835 335.188 277.623 324.034 275.595C312.88 273.567 311.359 273.821 311.359 273.821" fill="#263238"/>
<path d="M312.627 292.58L320.992 301.706C320.992 301.706 322.006 327.056 322.006 339.731C322.081 348.996 322.929 358.238 324.541 367.362C325.048 369.897 330.625 392.459 330.625 399.05C330.625 405.641 331.639 415.527 331.639 417.048C331.639 418.569 329.358 418.569 329.104 421.104C329.012 422.399 328.757 423.676 328.344 424.907C331.445 425.931 334.491 427.116 337.47 428.456C340.512 429.977 349.638 432.005 350.398 431.498C351.159 430.991 351.666 426.174 351.412 423.132C351.159 420.09 350.652 414.767 350.652 413.499C350.652 412.232 352.173 390.684 352.173 379.784C352.173 368.883 347.356 354.18 346.089 349.871C345.16 346.66 344.732 343.325 344.821 339.984C344.821 337.703 350.905 309.564 350.652 295.368C350.398 281.172 347.103 274.835 347.103 274.835C347.103 274.835 335.188 277.623 324.034 275.595C312.88 273.567 311.359 273.821 311.359 273.821" stroke="#263238" stroke-linecap="round" stroke-linejoin="round"/>
<path d="M326.326 377.776C324.379 366.875 321.6 350.743 321.195 345.409C320.546 337.074 319.907 305.011 319.907 305.011L310.284 297.964" stroke="white" stroke-linecap="round" stroke-linejoin="round"/>
<path d="M328.243 388.362C328.243 388.362 327.898 386.506 327.36 383.546" stroke="white" stroke-linecap="round" stroke-linejoin="round"/>
<path d="M323.659 206.947C323.659 206.947 323.781 205.122 330.372 204.615C336.963 204.108 340.765 206.39 341.779 210.192C342.793 213.995 340.005 256.076 340.258 261.906C340.512 267.737 340.258 277.623 340.258 277.623C340.258 277.623 341.019 280.665 325.555 281.172C310.092 281.679 307.303 279.905 302.233 276.356C302.233 276.356 302.233 272.3 306.796 247.71C311.359 223.121 317.737 219.734 319.765 216.185L323.659 206.947Z" fill="white" stroke="#263238" stroke-linecap="round" stroke-linejoin="round"/>
<path d="M338.96 154.29C333.379 152.316 327.252 152.571 321.854 155C312.515 159.056 314.452 168.578 314.097 171.224C313.742 173.871 311.105 176.152 311.805 180.036C312.505 183.919 314.097 194.688 317.98 195.702C320.429 196.312 323.003 196.188 325.383 195.347C325.383 195.347 324.673 205.923 322.341 210.506C320.008 215.09 317.058 221.965 317.058 221.965C317.058 221.965 327.279 223.729 330.98 223.557C333.091 223.48 335.177 223.062 337.155 222.32C337.155 222.32 338.737 199.93 338.919 195.702C339.102 191.474 339.274 186.88 340.856 186.353C342.438 185.826 347.376 182.469 348.968 175.949C350.56 169.429 346.717 156.764 338.96 154.29Z" fill="white" stroke="#263238" stroke-linecap="round" stroke-linejoin="round"/>
<path d="M321.641 176.598C321.641 176.598 322.523 178.19 320.404 179.417C318.285 180.644 316.703 180.482 318.112 181.536C318.741 182.065 319.454 182.483 320.221 182.774" stroke="#263238" stroke-linecap="round" stroke-linejoin="round"/>
<path d="M318.508 186.079C318.508 186.079 321.682 188.716 325.738 185.197" stroke="#263238" stroke-linecap="round" stroke-linejoin="round"/>
<path d="M327.32 177.176C327.32 177.998 326.854 178.667 326.306 178.667C325.758 178.667 325.292 177.998 325.292 177.176C325.292 176.355 325.758 175.676 326.306 175.676C326.854 175.676 327.32 176.345 327.32 177.176Z" fill="#263238"/>
<path d="M319.208 175.757C319.208 176.588 318.741 177.257 318.194 177.257C317.646 177.257 317.18 176.588 317.18 175.757C317.18 174.925 317.656 174.266 318.194 174.266C318.731 174.266 319.208 174.935 319.208 175.757Z" fill="#263238"/>
<path d="M326.093 171.974C326.093 171.974 328.202 169.855 330.494 173.201" stroke="#263238" stroke-linecap="round" stroke-linejoin="round"/>
<path d="M316.217 170.565C316.217 170.565 319.746 167.918 321.155 171.579" stroke="#263238" stroke-linecap="round" stroke-linejoin="round"/>
<path d="M327.147 176.203C326.352 175.908 325.519 175.731 324.673 175.676" stroke="#263238" stroke-linecap="round" stroke-linejoin="round"/>
<path d="M319.035 174.793C318.244 174.499 317.414 174.322 316.571 174.266" stroke="#263238" stroke-linecap="round" stroke-linejoin="round"/>
<path d="M338.96 154.29C335.311 152.757 331.291 152.333 327.403 153.073C323.514 153.812 319.93 155.682 317.099 158.448C318.214 157.667 324.673 155.294 331.944 159.401C335.553 161.429 337.014 165.576 337.196 168.578C337.379 171.579 340.37 172.279 340.238 174.043C340.106 175.807 339.356 177.389 341.252 178.099C343.148 178.809 342.662 179.326 341.779 182.855C341.485 184.041 341.059 185.268 340.836 186.414H340.897C342.489 185.887 347.417 182.53 349.009 176.01C350.601 169.49 346.718 156.764 338.96 154.29Z" fill="#263238" stroke="#263238" stroke-linecap="round" stroke-linejoin="round"/>
<path d="M339.691 179.326C339.691 179.326 342.337 175.098 344.629 175.98C346.921 176.862 345.694 183.564 341.81 185.329C337.926 187.093 338.281 185.856 337.937 183.919" fill="white"/>
<path d="M339.691 179.326C339.691 179.326 342.337 175.098 344.629 175.98C346.921 176.862 345.694 183.564 341.81 185.329C337.926 187.093 338.281 185.856 337.937 183.919" stroke="#263238" stroke-linecap="round" stroke-linejoin="round"/>
<path d="M325.383 195.378C327.868 194.387 330.246 193.147 332.481 191.676" stroke="#263238" stroke-linecap="round" stroke-linejoin="round"/>
<path d="M360.113 267.483C359.982 271.82 360.457 276.155 361.522 280.361C363.287 287.053 366.116 298.339 366.116 299.749C366.116 301.158 363.469 302.567 362.06 303.805C360.65 305.042 360.995 308.033 361.178 309.27C361.36 310.507 364.879 312.312 364.879 312.312C364.879 312.312 368.225 314.076 368.752 313.012C369.279 311.947 372.281 309.311 372.636 307.546C372.937 304.087 373.056 300.614 372.991 297.143C372.991 295.033 374.218 271.935 370.871 264.177L360.113 265.415V267.483Z" fill="white" stroke="#263238" stroke-linecap="round" stroke-linejoin="round"/>
<path d="M329.084 212.828C330.133 217.004 330.899 221.245 331.375 225.524C331.903 231.344 329.611 263.61 329.084 277.005C328.829 284.564 328.124 292.101 326.975 299.576C331.623 300.477 336.345 300.949 341.079 300.986C348.482 300.986 357.821 298.339 357.821 298.339C357.821 298.339 350.418 273.831 350.418 266.074C350.418 258.317 352.538 239.456 352.538 239.456L356.239 262.2C358.789 262.76 361.423 262.818 363.996 262.373C366.677 261.98 369.289 261.208 371.753 260.081C371.753 260.081 373.335 255.498 373.335 247.213C373.335 238.929 368.579 227.288 366.642 221.113C364.706 214.938 366.997 212.828 360.822 210.892C354.647 208.955 343.188 204.544 341.951 204.189C341.951 204.189 336.141 212.129 333.667 213.315C332.933 213.666 332.116 213.806 331.307 213.72C330.497 213.634 329.728 213.325 329.084 212.828Z" fill="#0D3FB2" stroke="#263238" stroke-linecap="round" stroke-linejoin="round"/>
<path d="M349.131 230.188L352.538 239.456L346.859 234.741" stroke="#263238" stroke-linecap="round" stroke-linejoin="round"/>
<path d="M362.536 212.991C362.536 212.991 353.937 219.075 351.909 226.173" stroke="#263238" stroke-linecap="round" stroke-linejoin="round"/>
<path d="M329.084 212.828C329.084 212.828 335.614 223.404 335.432 223.982C335.249 224.56 344.953 203.53 344.953 203.53L340.015 198.065L329.084 212.828Z" fill="white" stroke="#263238" stroke-linecap="round" stroke-linejoin="round"/>
<path d="M290.299 248.795C289.285 251.087 286.77 254.443 287.825 255.325C288.879 256.207 292.418 259.381 294.527 261.135C295.857 262.227 297.34 263.119 298.928 263.782C299.631 260.049 300.105 256.277 300.348 252.486L292.418 248.258C292.418 248.258 291.353 246.503 290.299 248.795Z" fill="white" stroke="#263238" stroke-linecap="round" stroke-linejoin="round"/>
<path d="M356.411 259.371C356.411 259.371 354.647 259.199 354.83 260.253C355.012 261.308 355.357 265.719 355.844 266.601C356.33 267.483 358.886 267.483 360.072 267.483C361.258 267.483 371.885 267.483 372.595 265.719C373.305 263.954 372.767 258.499 372.24 257.607C371.713 256.714 356.411 259.371 356.411 259.371Z" fill="white" stroke="#263238" stroke-linecap="round" stroke-linejoin="round"/>
<path d="M364.168 311.389L365.577 310.335" stroke="#263238" stroke-linecap="round" stroke-linejoin="round"/>
<path d="M363.823 308.915C365.072 309.464 366.118 310.389 366.815 311.562" stroke="#263238" stroke-linecap="round" stroke-linejoin="round"/>
<path d="M231.72 249.343L227.988 256.441C227.906 256.597 227.857 256.768 227.843 256.944C227.829 257.12 227.851 257.297 227.908 257.464C227.965 257.631 228.056 257.785 228.174 257.916C228.292 258.046 228.436 258.152 228.597 258.225L250.682 268.365C250.994 268.507 251.349 268.519 251.67 268.399C251.991 268.279 252.252 268.038 252.395 267.726L255.731 260.385C255.873 260.073 255.885 259.718 255.765 259.397C255.645 259.076 255.404 258.815 255.092 258.671L233.403 248.785C233.104 248.647 232.764 248.628 232.451 248.732C232.139 248.835 231.877 249.054 231.72 249.343Z" fill="#263238" stroke="#263238" stroke-linecap="round" stroke-linejoin="round"/>
<path d="M262.626 261.135C262.626 261.135 259.098 254.615 257.688 253.906C256.279 253.196 253.277 253.034 252.223 253.733C250.244 254.938 248.012 255.664 245.703 255.853C243.411 255.853 243.411 256.207 244.293 257.079C245.175 257.951 245.703 258.844 247.812 258.844C249.921 258.844 252.933 258.499 252.933 258.499C252.933 258.499 254.697 264.492 258.003 264.492" fill="white"/>
<path d="M262.626 261.135C262.626 261.135 259.098 254.615 257.688 253.906C256.279 253.196 253.277 253.034 252.223 253.733C250.244 254.938 248.012 255.664 245.703 255.853C243.411 255.853 243.411 256.207 244.293 257.079C245.175 257.951 245.703 258.844 247.812 258.844C249.921 258.844 252.933 258.499 252.933 258.499C252.933 258.499 254.697 264.492 258.003 264.492" stroke="#263238" stroke-linecap="round" stroke-linejoin="round"/>
<path d="M355.976 343.026L359.525 392.459L396.536 388.149L386.142 340.998L355.976 343.026Z" fill="#0D3FB2" stroke="#263238" stroke-linecap="round" stroke-linejoin="round"/>
<path d="M355.975 343.026L350.651 389.924L359.524 392.459L355.975 343.026Z" fill="#0D3FB2" stroke="#263238" stroke-linecap="round" stroke-linejoin="round"/>
<path d="M355.976 343.026L365.578 310.335" stroke="#263238" stroke-linecap="round" stroke-linejoin="round"/>
<path d="M370.932 310.325L386.142 340.998" stroke="#263238" stroke-linecap="round" stroke-linejoin="round"/>
<path d="M262.687 228.576C262.691 225.846 261.929 223.17 260.488 220.852C259.046 218.534 256.982 216.667 254.532 215.464C252.082 214.261 249.343 213.77 246.627 214.047C243.912 214.324 241.328 215.357 239.171 217.03C237.014 218.703 235.369 220.947 234.425 223.508C233.481 226.069 233.274 228.844 233.829 231.517C234.384 234.19 235.678 236.653 237.563 238.627C239.449 240.6 241.851 242.005 244.496 242.681L247.984 248.765L251.31 242.833C254.545 242.104 257.435 240.295 259.503 237.703C261.571 235.111 262.694 231.892 262.687 228.576Z" fill="#263238" stroke="#263238" stroke-linecap="round" stroke-linejoin="round"/>
<path d="M249.495 236.171V238.584H247.345V236.262C245.435 236.198 243.58 235.601 241.991 234.538L243.178 231.922C244.412 232.78 245.848 233.304 247.345 233.443V229.854C244.962 229.276 242.275 228.474 242.275 225.402C242.275 223.131 243.928 221.174 247.345 220.788V218.395H249.495V220.738C251.032 220.828 252.526 221.28 253.855 222.056L252.78 224.692C251.769 224.109 250.652 223.73 249.495 223.577V227.237C251.878 227.795 254.504 228.586 254.504 231.618C254.514 233.828 252.871 235.765 249.495 236.171ZM247.345 226.68V223.638C246.209 223.891 245.753 224.52 245.753 225.22C245.753 225.919 246.402 226.376 247.345 226.68ZM251.036 231.851C251.036 231.101 250.418 230.695 249.495 230.371V233.342C250.57 233.098 251.036 232.541 251.036 231.851Z" fill="#0D3FB2"/>
</svg>
