<svg width="49" height="49" viewBox="0 0 49 49" fill="none" xmlns="http://www.w3.org/2000/svg">
<circle cx="24.5" cy="24.5" r="24.5" fill="white"/>
<path d="M35.5 24.5L36.2071 25.2071L36.9142 24.5L36.2071 23.7929L35.5 24.5ZM14.875 23.5C14.3227 23.5 13.875 23.9477 13.875 24.5C13.875 25.0523 14.3227 25.5 14.875 25.5L14.875 23.5ZM27.9571 33.4571L36.2071 25.2071L34.7929 23.7929L26.5429 32.0429L27.9571 33.4571ZM36.2071 23.7929L27.9571 15.5429L26.5429 16.9571L34.7929 25.2071L36.2071 23.7929ZM35.5 23.5L14.875 23.5L14.875 25.5L35.5 25.5L35.5 23.5Z" fill="#0D3FB2"/>
</svg>
