<svg width="47" height="47" viewBox="0 0 47 47" fill="none" xmlns="http://www.w3.org/2000/svg">
<path d="M23.5 9.79169L23.5 5.87502" stroke="#D9D9D9" stroke-width="2" stroke-linecap="round"/>
<path fill-rule="evenodd" clip-rule="evenodd" d="M43.0827 15.6667H3.91602V21.5417H4.624C6.16226 21.5417 6.93139 21.5417 7.47979 21.9816C8.0282 22.4215 8.19505 23.1723 8.52874 24.674L11.0533 36.0344C11.387 37.536 11.5538 38.2869 12.1022 38.7268C12.6506 39.1667 13.4198 39.1667 14.958 39.1667H32.0407C33.5789 39.1667 34.3481 39.1667 34.8965 38.7268C35.4449 38.2869 35.6117 37.536 35.9454 36.0344L38.47 24.674C38.8036 23.1723 38.9705 22.4215 39.5189 21.9816C40.0673 21.5417 40.8364 21.5417 42.3747 21.5417H43.0827V15.6667ZM17.6316 25.294C17.5408 24.7492 17.0256 24.3812 16.4808 24.472C15.936 24.5628 15.568 25.078 15.6588 25.6228L16.638 31.4978C16.7287 32.0425 17.244 32.4105 17.7887 32.3197C18.3335 32.229 18.7015 31.7137 18.6107 31.169L17.6316 25.294ZM31.3397 25.6228C31.4305 25.078 31.0625 24.5628 30.5177 24.472C29.973 24.3812 29.4577 24.7492 29.3669 25.294L28.3878 31.169C28.297 31.7137 28.665 32.229 29.2098 32.3197C29.7545 32.4105 30.2698 32.0425 30.3605 31.4978L31.3397 25.6228Z" fill="#D9D9D9"/>
</svg>
