<svg width="47" height="47" viewBox="0 0 47 47" fill="none" xmlns="http://www.w3.org/2000/svg">
<path d="M23.5 9.79169L23.5 5.87502" stroke="#0D3FB2" stroke-width="2" stroke-linecap="round"/>
<path fill-rule="evenodd" clip-rule="evenodd" d="M43.0833 15.6667H3.91663V21.5417H4.62461C6.16287 21.5417 6.932 21.5417 7.4804 21.9816C8.02881 22.4215 8.19566 23.1723 8.52935 24.674L11.0539 36.0344C11.3876 37.536 11.5544 38.2869 12.1028 38.7268C12.6513 39.1667 13.4204 39.1667 14.9586 39.1667H32.0413C33.5795 39.1667 34.3487 39.1667 34.8971 38.7268C35.4455 38.2869 35.6123 37.536 35.946 36.0344L38.4706 24.674C38.8043 23.1723 38.9711 22.4215 39.5195 21.9816C40.0679 21.5417 40.8371 21.5417 42.3753 21.5417H43.0833V15.6667ZM17.6322 25.294C17.5414 24.7492 17.0262 24.3812 16.4814 24.472C15.9366 24.5628 15.5686 25.078 15.6594 25.6228L16.6386 31.4978C16.7294 32.0425 17.2446 32.4105 17.7894 32.3197C18.3341 32.229 18.7021 31.7137 18.6114 31.169L17.6322 25.294ZM31.3403 25.6228C31.4311 25.078 31.0631 24.5628 30.5183 24.472C29.9736 24.3812 29.4583 24.7492 29.3675 25.294L28.3884 31.169C28.2976 31.7137 28.6656 32.229 29.2104 32.3197C29.7551 32.4105 30.2704 32.0425 30.3612 31.4978L31.3403 25.6228Z" fill="#0D3FB2"/>
</svg>
