<svg width="36" height="36" viewBox="0 0 36 36" fill="none" xmlns="http://www.w3.org/2000/svg">
<path fill-rule="evenodd" clip-rule="evenodd" d="M0 5.625C0 2.5184 2.5184 0 5.625 0H30.375C33.4816 0 36 2.5184 36 5.625V30.375C36 33.4816 33.4816 36 30.375 36H5.625C2.5184 36 0 33.4816 0 30.375V5.625ZM18 9C22.95 9 27 13.05 27 18C27 22.5 23.7375 26.325 19.2375 27V20.5875H21.375L21.825 18H19.35V16.3125C19.35 15.6375 19.6875 14.9625 20.8125 14.9625H21.9375V12.7125C21.9375 12.7125 20.925 12.4875 19.9125 12.4875C17.8875 12.4875 16.5375 13.725 16.5375 15.975V18H14.2875V20.5875H16.5375V26.8875C12.2625 26.2125 9 22.5 9 18C9 13.05 13.05 9 18 9Z" fill="#0D3FB2"/>
</svg>
