<svg width="72" height="72" viewBox="0 0 72 72" fill="none" xmlns="http://www.w3.org/2000/svg">
<path d="M39 6.15V12.21C50.85 13.68 60 23.76 60 36C60 45.63 54.24 54 45.84 57.84L39 51V66H54L50.34 62.34C59.73 57.21 66 47.28 66 36C66 20.46 54.15 7.65 39 6.15ZM33 6C27.15 6.6 21.6 8.88 17.04 12.63L21.3 16.89C24.7053 14.2649 28.7395 12.5789 33 12V6ZM12.6 17.04C8.88 21.6 6.6 27.15 6 33H12C12.57 28.74 14.25 24.69 16.89 21.3L12.6 17.04ZM18 24V30H27V33H24C20.7 33 18 35.7 18 39V48H33V42H24V39H27C30.33 39 33 36.33 33 33V30C33 28.4087 32.3679 26.8826 31.2426 25.7574C30.1174 24.6321 28.5913 24 27 24H18ZM36 24V39H45V48H51V39H54V33H51V24H45V33H42V24H36ZM6 39C6.6 44.85 8.91 50.4 12.66 54.96L16.92 50.7C14.286 47.2968 12.5897 43.2628 12 39H6ZM21.33 55.11L17.04 59.37C21.5981 63.0916 27.1466 65.3965 33 66V60C28.745 59.4343 24.7172 57.7466 21.33 55.11Z" fill="#243A73"/>
</svg>
