<svg width="26" height="24" viewBox="0 0 26 24" fill="none" xmlns="http://www.w3.org/2000/svg">
<path fill-rule="evenodd" clip-rule="evenodd" d="M4.56618 5.87868C3.6875 6.75736 3.6875 8.17157 3.6875 11V13C3.6875 15.8284 3.6875 17.2426 4.56618 18.1213C5.44486 19 6.85907 19 9.6875 19H16.0122C18.8407 19 20.2549 19 21.1336 18.1213C22.0122 17.2426 22.0122 15.8284 22.0122 13V11C22.0122 8.17157 22.0122 6.75736 21.1336 5.87868C20.2549 5 18.8407 5 16.0122 5H9.6875C6.85907 5 5.44486 5 4.56618 5.87868ZM7.28946 8.16342C6.82743 7.86085 6.2076 7.99013 5.90504 8.45216C5.60248 8.91419 5.73175 9.53402 6.19378 9.83658L11.7542 13.4778C12.4197 13.9136 13.2801 13.9136 13.9455 13.4778L19.506 9.83658C19.968 9.53402 20.0973 8.91419 19.7947 8.45216C19.4921 7.99013 18.8723 7.86085 18.4103 8.16342L12.8499 11.8047L7.28946 8.16342Z" fill="white"/>
</svg>
