<svg width="26" height="24" viewBox="0 0 26 24" fill="none" xmlns="http://www.w3.org/2000/svg">
<path d="M7.31243 3.32038L7.92571 2.70711C8.31623 2.31658 8.94939 2.31658 9.33992 2.70711L11.9257 5.29289C12.3162 5.68342 12.3162 6.31658 11.9257 6.70711L10.1333 8.49952C9.83441 8.7984 9.76031 9.255 9.94935 9.63307C11.0421 11.8186 12.8142 13.5907 14.9997 14.6835C15.3778 14.8725 15.8344 14.7984 16.1333 14.4995L17.9257 12.7071C18.3162 12.3166 18.9494 12.3166 19.3399 12.7071L21.9257 15.2929C22.3162 15.6834 22.3162 16.3166 21.9257 16.7071L21.3124 17.3204C19.2011 19.4317 15.8585 19.6693 13.4698 17.8777L12.2614 16.9714C10.5179 15.6638 8.96903 14.115 7.66138 12.3714L6.75508 11.163C4.96353 8.7743 5.20108 5.43173 7.31243 3.32038Z" fill="white"/>
</svg>
