<svg width="26" height="24" viewBox="0 0 26 24" fill="none" xmlns="http://www.w3.org/2000/svg">
<path fill-rule="evenodd" clip-rule="evenodd" d="M13.2411 19.8106C14.7334 19.0524 19.9752 16.031 19.9752 11C19.9752 7.13401 16.7847 4 12.8489 4C8.9132 4 5.72266 7.13401 5.72266 11C5.72266 16.031 10.9645 19.0524 12.4568 19.8106C12.7067 19.9376 12.9912 19.9376 13.2411 19.8106ZM12.8489 14C14.5357 14 15.9031 12.6569 15.9031 11C15.9031 9.34315 14.5357 8 12.8489 8C11.1622 8 9.79482 9.34315 9.79482 11C9.79482 12.6569 11.1622 14 12.8489 14Z" fill="white"/>
</svg>
